<svg width="30" height="30" viewBox="0 0 30 30" fill="none" xmlns="http://www.w3.org/2000/svg">
<g clip-path="url(#clip0_409_7621)">
<circle cx="15" cy="15" r="15" fill="#EBE9E8"/>
<circle cx="15" cy="15" r="15" fill="white"/>
<path d="M22.3125 21.4688H7.6875C6.9 21.4688 6.28125 20.85 6.28125 20.0625V9.9375C6.28125 9.15 6.9 8.53125 7.6875 8.53125H22.3125C23.1 8.53125 23.7188 9.15 23.7188 9.9375V20.0625C23.7188 20.85 23.1 21.4688 22.3125 21.4688Z" fill="#1976D2"/>
<path d="M23.7188 9.9375H6.28125V12.75H23.7188V9.9375Z" fill="#263238"/>
<path d="M21.4688 13.0312H8.53125V15.2812H21.4688V13.0312Z" fill="#E0F7FA"/>
<path d="M8.67188 14.0438L9.54375 13.1719" stroke="#1565C0" stroke-miterlimit="10"/>
<path d="M9.29053 15.1406L11.2593 13.1719" stroke="#1565C0" stroke-miterlimit="10"/>
<path d="M12.9751 13.1719L11.0063 15.1406" stroke="#1565C0" stroke-miterlimit="10"/>
<path d="M14.6907 13.1719L12.7219 15.1406" stroke="#1565C0" stroke-miterlimit="10"/>
<path d="M16.4062 13.1719L14.4375 15.1406" stroke="#1565C0" stroke-miterlimit="10"/>
<path d="M18.1218 13.1719L16.1531 15.1406" stroke="#1565C0" stroke-miterlimit="10"/>
<path d="M19.8657 13.1719L17.897 15.1406" stroke="#1565C0" stroke-miterlimit="10"/>
<path d="M21.3282 13.425L19.6125 15.1406" stroke="#1565C0" stroke-miterlimit="10"/>
<path d="M9.5437 14.0156L10.3875 13.1719" stroke="#FBC02D" stroke-miterlimit="10"/>
<path d="M12.103 13.1719L11.2593 14.0156" stroke="#FBC02D" stroke-miterlimit="10"/>
<path d="M13.8469 13.1719L13.0032 14.0156" stroke="#FBC02D" stroke-miterlimit="10"/>
<path d="M15.5625 13.1719L14.7188 14.0156" stroke="#FBC02D" stroke-miterlimit="10"/>
<path d="M17.2781 13.1719L16.4343 14.0156" stroke="#FBC02D" stroke-miterlimit="10"/>
<path d="M18.9937 13.1719L18.1499 14.0156" stroke="#FBC02D" stroke-miterlimit="10"/>
<path d="M20.7095 13.1719L19.8657 14.0156" stroke="#FBC02D" stroke-miterlimit="10"/>
<path d="M21.3282 14.2687L20.4563 15.1406" stroke="#C62828" stroke-miterlimit="10"/>
<path d="M9.2625 14.2969L8.67188 14.8875" stroke="#C62828" stroke-miterlimit="10"/>
<path d="M10.978 14.2969L10.1343 15.1406" stroke="#C62828" stroke-miterlimit="10"/>
<path d="M11.8782 15.1406L12.7219 14.2969" stroke="#C62828" stroke-miterlimit="10"/>
<path d="M13.5938 15.1406L14.4375 14.2969" stroke="#C62828" stroke-miterlimit="10"/>
<path d="M15.3093 15.1406L16.1531 14.2969" stroke="#C62828" stroke-miterlimit="10"/>
<path d="M17.0249 15.1406L17.8687 14.2969" stroke="#C62828" stroke-miterlimit="10"/>
<path d="M18.7407 15.1406L19.5845 14.2969" stroke="#C62828" stroke-miterlimit="10"/>
<path d="M20.625 19.3594H19.5C18.6562 19.3594 17.9531 18.6562 17.9531 17.8125C17.9531 16.9688 18.6562 16.2656 19.5 16.2656H20.625C21.4688 16.2656 22.1719 16.9688 22.1719 17.8125C22.1719 18.6562 21.4688 19.3594 20.625 19.3594Z" stroke="#E0E0E0" stroke-miterlimit="10"/>
<path d="M19.5 16.8281C19.6969 16.8281 19.8937 16.8844 20.0625 16.9969C19.8094 17.1656 19.6406 17.475 19.6406 17.8125H20.4844C20.4844 18.15 20.3156 18.4313 20.0625 18.6281C19.8937 18.7406 19.6969 18.7969 19.5 18.7969C18.9656 18.7969 18.5156 18.3469 18.5156 17.8125C18.5156 17.2781 18.9656 16.8281 19.5 16.8281Z" fill="#D32F2F"/>
<path d="M19.6406 17.8125C19.6406 17.475 19.8094 17.1937 20.0625 16.9969C20.2312 16.8844 20.4281 16.8281 20.625 16.8281C21.1594 16.8281 21.6094 17.2781 21.6094 17.8125C21.6094 18.3469 21.1594 18.7969 20.625 18.7969C20.4281 18.7969 20.2312 18.7406 20.0625 18.6281C20.3156 18.4594 20.4844 18.15 20.4844 17.8125H19.6406Z" fill="#F57C00"/>
<path d="M11.0625 16.2656H9.09375" stroke="#E0E0E0" stroke-miterlimit="10"/>
<path d="M8.8125 16.2656H7.6875" stroke="#E0E0E0" stroke-miterlimit="10"/>
<path d="M13.875 16.2656H11.3438" stroke="#E0E0E0" stroke-miterlimit="10"/>
<path d="M12.1875 16.8281H13.875" stroke="#E0E0E0" stroke-miterlimit="10"/>
<path d="M7.6875 16.8281H11.9062" stroke="#E0E0E0" stroke-miterlimit="10"/>
<path d="M12.1875 17.9531H13.875" stroke="#E0E0E0" stroke-miterlimit="10"/>
<path d="M8.8125 17.9531H7.6875" stroke="#E0E0E0" stroke-miterlimit="10"/>
<path d="M11.9062 17.9531H9.09375" stroke="#E0E0E0" stroke-miterlimit="10"/>
<path d="M13.875 18.5156H11.625" stroke="#E0E0E0" stroke-miterlimit="10"/>
<path d="M11.3438 18.5156H7.6875" stroke="#E0E0E0" stroke-miterlimit="10"/>
<path d="M13.875 19.0781H11.0625" stroke="#E0E0E0" stroke-miterlimit="10"/>
<path d="M7.6875 19.0781H10.7812" stroke="#E0E0E0" stroke-miterlimit="10"/>
</g>
<defs>
<clipPath id="clip0_409_7621">
<rect width="30" height="30" rx="15" fill="white"/>
</clipPath>
</defs>
</svg>
