<svg width="40" height="40" viewBox="0 0 40 40" fill="none" xmlns="http://www.w3.org/2000/svg">
<rect width="40" height="40" rx="20" fill="#EDBB40"/>
<path d="M11 26H10C10 26.4045 10.2436 26.7691 10.6173 26.9239C10.991 27.0787 11.4211 26.9931 11.7071 26.7071L11 26ZM27 29L26.2929 29.7071C26.5789 29.9931 27.009 30.0787 27.3827 29.9239C27.7564 29.7691 28 29.4045 28 29H27ZM14 15C13.4477 15 13 15.4477 13 16C13 16.5523 13.4477 17 14 17V15ZM20 17C20.5523 17 21 16.5523 21 16C21 15.4477 20.5523 15 20 15V17ZM14 18C13.4477 18 13 18.4477 13 19C13 19.5523 13.4477 20 14 20V18ZM18 20C18.5523 20 19 19.5523 19 19C19 18.4477 18.5523 18 18 18V20ZM13.4142 23.5858L14.1213 24.2929L13.4142 23.5858ZM12 26V14H10V26H12ZM13 13H21V11H13V13ZM12.7071 22.8787L10.2929 25.2929L11.7071 26.7071L14.1213 24.2929L12.7071 22.8787ZM27.7071 28.2929L25.2929 25.8787L23.8787 27.2929L26.2929 29.7071L27.7071 28.2929ZM23.1716 25H17V27H23.1716V25ZM21 22H15V24H21V22ZM15 22H14.8284V24H15V22ZM16 24V23H14V24H16ZM28 29V18H26V29H28ZM22 14V16H24V14H22ZM22 16V21H24V16H22ZM25 15H23V17H25V15ZM14 17H20V15H14V17ZM14 20H18V18H14V20ZM28 18C28 16.3431 26.6569 15 25 15V17C25.5523 17 26 17.4477 26 18H28ZM17 25C16.4477 25 16 24.5523 16 24H14C14 25.6569 15.3431 27 17 27V25ZM14.1213 24.2929C14.3089 24.1054 14.5632 24 14.8284 24V22C14.0328 22 13.2697 22.3161 12.7071 22.8787L14.1213 24.2929ZM21 24C22.6569 24 24 22.6569 24 21H22C22 21.5523 21.5523 22 21 22V24ZM21 13C21.5523 13 22 13.4477 22 14H24C24 12.3431 22.6569 11 21 11V13ZM25.2929 25.8787C24.7303 25.3161 23.9672 25 23.1716 25V27C23.4368 27 23.6911 27.1054 23.8787 27.2929L25.2929 25.8787ZM12 14C12 13.4477 12.4477 13 13 13V11C11.3431 11 10 12.3431 10 14H12Z" fill="#111319"/>
</svg>
