<svg width="145" height="30" viewBox="0 0 145 30" fill="none" xmlns="http://www.w3.org/2000/svg">
<g clip-path="url(#clip0_409_3529)">
<path d="M59.16 30H3.5264C1.5776 30 0 28.4368 0 26.5057V3.49425C0 1.56322 1.5776 0 3.5264 0H59.16V30Z" fill="#626262"/>
<path d="M141.474 30H59.16V0H141.474C143.422 0 145 1.56322 145 3.49425V26.5172C145 28.4368 143.422 30 141.474 30Z" fill="#B7B7B7"/>
<path d="M18.0728 18.1954C18.0728 19.3333 17.9104 20.2414 17.5972 20.9195C17.284 21.5977 16.8664 22.1149 16.3676 22.4598C15.8688 22.8161 15.312 23.046 14.6972 23.1609C14.0824 23.2759 13.4792 23.3333 12.8876 23.3333H7.00641V6.7931H13.4792C14.3144 6.7931 14.9872 6.93103 15.5208 7.2069C16.0544 7.48276 16.472 7.83908 16.7852 8.28736C17.0984 8.73563 17.3072 9.22989 17.4232 9.77011C17.5392 10.3103 17.5856 10.8506 17.574 11.3678C17.5508 12.8736 17.168 13.8966 16.4256 14.4368C16.9128 14.6667 17.3072 15.0805 17.6204 15.6782C17.922 16.2874 18.0728 17.1264 18.0728 18.1954ZM14.4536 11.4253C14.4536 10.908 14.3956 10.5172 14.268 10.2644C14.1404 10.0115 13.8968 9.88506 13.5256 9.88506H10.1732V13.1839H13.224C13.6996 13.1839 14.0128 13.023 14.1868 12.7126C14.3608 12.3908 14.4536 11.954 14.4536 11.4253ZM14.8944 18.2184C14.8944 17.7586 14.8596 17.3908 14.7784 17.1264C14.7088 16.8621 14.6044 16.6437 14.4884 16.4943C14.3724 16.3448 14.2448 16.2414 14.094 16.1954C13.9548 16.1494 13.8156 16.1264 13.6764 16.1264H10.1732V20.092H13.4096C13.9664 20.092 14.3608 19.9425 14.5696 19.6552C14.79 19.3563 14.8944 18.8851 14.8944 18.2184ZM30.7632 23.3333H20.1608V6.7931H30.5776V10H23.316V13.046H29.9976V16.2529H23.316V20.1034H30.7632V23.3333ZM43.036 18.4483C43.036 21.931 41.1452 23.6782 37.3636 23.6782C35.5308 23.6782 34.1272 23.1609 33.1644 22.1379C32.2016 21.1034 31.726 19.5172 31.726 17.3678H34.8C34.8232 17.8391 34.8812 18.2874 34.9624 18.6782C35.0436 19.0805 35.1944 19.4138 35.4032 19.7011C35.612 19.9885 35.8788 20.2069 36.2152 20.3678C36.5516 20.5287 36.9808 20.6092 37.5028 20.6092C38.3612 20.6092 38.976 20.4483 39.3588 20.1379C39.7416 19.8276 39.9388 19.2069 39.9388 18.3103C39.9388 17.8391 39.8576 17.4943 39.7068 17.2874C39.556 17.0805 39.3124 16.9195 38.9876 16.7931C38.6164 16.6552 38.164 16.5517 37.642 16.4713C37.12 16.3908 36.5168 16.2644 35.844 16.0805C35.322 15.931 34.8348 15.7586 34.394 15.5632C33.9532 15.3678 33.5588 15.1034 33.2224 14.7471C32.886 14.3908 32.6308 13.931 32.4452 13.3678C32.2596 12.8046 32.1668 12.0575 32.1668 11.1379C32.1668 10.4598 32.248 9.87356 32.422 9.37931C32.5844 8.88506 32.8164 8.45977 33.0948 8.11494C33.3732 7.77012 33.698 7.49425 34.0576 7.27586C34.4288 7.05747 34.8 6.89655 35.1828 6.78161C35.5656 6.66667 35.9484 6.58621 36.3312 6.55172C36.714 6.51724 37.0736 6.49425 37.3868 6.49425C38.4772 6.49425 39.3704 6.66667 40.0432 7C40.7276 7.33333 41.2496 7.78161 41.6324 8.31035C42.0152 8.85058 42.2704 9.45977 42.398 10.1264C42.5256 10.8046 42.5952 11.4713 42.5952 12.1264H39.5792C39.5328 11.8506 39.498 11.5402 39.4632 11.2069C39.44 10.8736 39.3588 10.5747 39.2428 10.3333C39.1384 10.1149 38.9644 9.91954 38.6976 9.74713C38.4308 9.57471 38.0132 9.48276 37.4448 9.48276C37.004 9.48276 36.6328 9.51724 36.3428 9.5977C36.0528 9.67816 35.8324 9.7931 35.67 9.94253C35.5076 10.092 35.3916 10.2989 35.3336 10.5402C35.2756 10.7816 35.2408 11.0805 35.2408 11.4138C35.2408 11.8161 35.3336 12.1034 35.5076 12.2759C35.6816 12.4483 36.018 12.5977 36.5052 12.7241C37.0156 12.8621 37.526 12.977 38.048 13.069C38.57 13.1609 39.0688 13.2759 39.556 13.4023C40.0432 13.5287 40.4956 13.7011 40.9132 13.9195C41.3308 14.1379 41.702 14.4253 42.0152 14.8046C42.3284 15.1839 42.5836 15.6667 42.7576 16.2529C42.9548 16.8391 43.036 17.5747 43.036 18.4483ZM54.5548 9.98851H50.7384V23.3333H47.5716V9.98851H43.7552V6.7931H54.5432L54.5548 9.98851Z" fill="#BFBFBF"/>
<path d="M75.0172 17.2529C74.9476 18.1149 74.7968 18.931 74.5648 19.7126C74.3328 20.4943 73.9964 21.1724 73.5556 21.7471C73.1148 22.3333 72.5348 22.7931 71.8272 23.1379C71.1196 23.4828 70.2612 23.6552 69.252 23.6552C68.092 23.6552 67.106 23.4598 66.294 23.069C65.482 22.6782 64.8324 22.1034 64.322 21.3678C63.8232 20.6207 63.452 19.7012 63.2316 18.6092C62.9996 17.5172 62.8836 16.2759 62.8836 14.8736C62.8836 13.5862 63.0112 12.4138 63.2548 11.3793C63.4984 10.3448 63.8812 9.45977 64.4032 8.72414C64.9252 8 65.5864 7.43678 66.3752 7.04598C67.1756 6.65517 68.1268 6.45977 69.2288 6.45977C70.3424 6.45977 71.2472 6.63218 71.9548 6.97701C72.6624 7.32184 73.2192 7.77012 73.6484 8.32184C74.066 8.87356 74.3676 9.50575 74.5532 10.2069C74.7388 10.908 74.8664 11.6207 74.9476 12.3218H71.9548C71.8852 11.954 71.804 11.5977 71.7112 11.2644C71.63 10.931 71.4908 10.6322 71.3168 10.3908C71.1428 10.1494 70.8992 9.95402 70.5976 9.8046C70.296 9.65517 69.89 9.58621 69.3796 9.58621C68.7648 9.58621 68.2428 9.68966 67.8252 9.88506C67.4076 10.0805 67.0596 10.4023 66.8044 10.8506C66.5492 11.2989 66.3636 11.8851 66.2476 12.6092C66.1316 13.3333 66.0852 14.2299 66.0852 15.2989C66.0852 16.3793 66.1664 17.2414 66.3172 17.9195C66.468 18.5862 66.6884 19.1149 66.9668 19.4828C67.2452 19.8621 67.5816 20.1149 67.9876 20.2529C68.3936 20.3908 68.8344 20.4598 69.3332 20.4598C69.8436 20.4598 70.238 20.3793 70.5396 20.2299C70.8412 20.0805 71.0732 19.8621 71.2472 19.5747C71.4212 19.2874 71.5604 18.954 71.6532 18.5632C71.7576 18.1724 71.8504 17.7356 71.9548 17.2414L75.0172 17.2529ZM87.7192 23.3333H84.564V16.1954H79.808V23.3333H76.6528V6.7931H79.808V12.9655H84.564V6.7931H87.7192V23.3333ZM101.024 23.3333H97.7184L96.8484 19.9195H92.6492L91.7908 23.3333H88.6008L93.1712 6.7931H96.3032L101.024 23.3333ZM96.0596 16.8391L94.7604 11.5172L93.4264 16.8391H96.0596ZM110.293 23.3333L105.467 13.2644V23.3333H102.312V6.7931H105.409L110.27 16.7931V6.7931H113.402V23.3333H110.293ZM127.635 23.3333H125.071V21.6552C124.886 22.0575 124.654 22.3793 124.375 22.6322C124.097 22.8851 123.795 23.0805 123.47 23.2299C123.146 23.3793 122.798 23.4713 122.45 23.5287C122.102 23.5862 121.754 23.6092 121.417 23.6092C120.257 23.6092 119.283 23.3908 118.506 22.9425C117.728 22.4943 117.102 21.8851 116.626 21.1035C116.151 20.3218 115.814 19.3908 115.617 18.3218C115.42 17.2529 115.316 16.1034 115.316 14.8736C115.316 9.26437 117.438 6.45977 121.696 6.45977C122.751 6.45977 123.633 6.63218 124.364 6.96552C125.094 7.29885 125.686 7.75862 126.138 8.31035C126.591 8.87356 126.916 9.51724 127.113 10.2299C127.31 10.954 127.414 11.7012 127.414 12.4598H124.19C124.19 12.1264 124.166 11.7816 124.12 11.4253C124.074 11.069 123.969 10.7586 123.807 10.4828C123.644 10.2069 123.389 9.97701 123.053 9.8046C122.716 9.63218 122.264 9.54023 121.684 9.54023C121.104 9.54023 120.605 9.63218 120.211 9.82759C119.805 10.023 119.48 10.3218 119.225 10.7356C118.97 11.1494 118.784 11.6897 118.668 12.3448C118.552 13 118.494 13.7931 118.494 14.7126C118.494 15.7241 118.54 16.5977 118.645 17.3218C118.749 18.046 118.923 18.6322 119.178 19.069C119.434 19.5172 119.77 19.8391 120.188 20.046C120.605 20.2529 121.139 20.3563 121.788 20.3563C122.16 20.3563 122.508 20.2989 122.844 20.1839C123.18 20.069 123.47 19.8851 123.714 19.6437C123.958 19.4023 124.155 19.0805 124.294 18.7012C124.433 18.3218 124.491 17.8621 124.48 17.3218H121.51V14.2759H127.658V23.3333H127.635ZM140.198 23.3333H129.618V6.7931H140.012V10H132.774V13.046H139.432V16.2529H132.774V20.1034H140.198V23.3333Z" fill="#5B5B5B"/>
</g>
<defs>
<clipPath id="clip0_409_3529">
<rect width="145" height="30" fill="white"/>
</clipPath>
</defs>
</svg>
