<svg width="58" height="36" viewBox="0 0 58 36" fill="none" xmlns="http://www.w3.org/2000/svg">
<g clip-path="url(#clip0_409_3524)">
<path d="M57.4473 29.1701V28.4708H57.266L57.0563 28.9507L56.8478 28.4708H56.666V29.1701H56.7948V28.6433L56.9908 29.0978H57.1242L57.3202 28.6422V29.1701H57.4478H57.4473ZM56.2974 29.1701V28.5906H56.5294V28.4726H55.9366V28.5906H56.1686V29.1701H56.2962H56.2974Z" fill="#F79410"/>
<path d="M36.8466 32.1689H21.1616V3.85013H36.8468L36.8466 32.1689Z" fill="#797979"/>
<path d="M22.156 18.0099C22.156 12.2655 24.8333 7.14829 29.0023 3.85056C25.8466 1.35066 21.9434 -0.0061205 17.9246 -0.000154934C8.02488 -0.000154934 0 8.06312 0 18.0099C0 27.9568 8.02488 36.02 17.9246 36.02C21.9435 36.0261 25.8468 34.6693 29.0026 32.1693C24.8339 28.8722 22.156 23.7547 22.156 18.0099Z" fill="#5B5B5B"/>
<path d="M58.0072 18.0101C58.0072 27.9569 49.9824 36.0202 40.0826 36.0202C36.0633 36.0261 32.1596 34.6694 29.0032 32.1695C33.1734 28.8717 35.8507 23.7548 35.8507 18.0101C35.8507 12.2653 33.1734 7.14845 29.0032 3.85071C32.1595 1.35089 36.0631 -0.00586025 40.0823 7.01912e-08C49.9821 7.01912e-08 58.0069 8.06327 58.0069 18.0101" fill="#919191"/>
</g>
<defs>
<clipPath id="clip0_409_3524">
<rect width="58" height="36" fill="white"/>
</clipPath>
</defs>
</svg>
