<svg width="30" height="30" viewBox="0 0 30 30" fill="none" xmlns="http://www.w3.org/2000/svg">
<g clip-path="url(#clip0_191_2577)">
<circle cx="15" cy="15" r="15" fill="#EBE9E8"/>
<circle cx="15" cy="15" r="15" fill="white"/>
<g clip-path="url(#clip1_191_2577)">
<path fill-rule="evenodd" clip-rule="evenodd" d="M6.57785 6.10802L2.01947 15.7941C2.00213 15.8301 1.99663 15.8708 2.00379 15.9102C2.01094 15.9496 2.03038 15.9857 2.05925 16.0131L14.3703 27.9471C14.4053 27.981 14.4519 27.9999 14.5003 27.9999C14.5488 27.9999 14.5954 27.981 14.6303 27.9471L26.9414 16.0139C26.9703 15.9864 26.9897 15.9504 26.9969 15.911C27.004 15.8715 26.9985 15.8308 26.9812 15.7948L22.4228 6.10877C22.4081 6.07624 22.3844 6.04868 22.3546 6.02939C22.3249 6.0101 22.2902 5.99989 22.2549 5.99998H6.74725C6.71172 5.99954 6.67682 6.0095 6.64676 6.02867C6.6167 6.04784 6.59277 6.0754 6.57785 6.10802Z" fill="#50AF95"/>
<path fill-rule="evenodd" clip-rule="evenodd" d="M16.0817 16.7888C15.9933 16.7955 15.5367 16.8231 14.5181 16.8231C13.7079 16.8231 13.1327 16.7985 12.9309 16.7888C9.79988 16.6494 7.46287 16.0981 7.46287 15.4379C7.46287 14.7778 9.79988 14.2272 12.9309 14.0856V16.2397C13.1356 16.2546 13.7219 16.2896 14.5321 16.2896C15.5043 16.2896 15.9911 16.2486 16.0788 16.2404V14.0871C19.2031 14.2279 21.535 14.7793 21.535 15.4379C21.535 16.0966 19.2039 16.648 16.0788 16.788L16.0817 16.7888ZM16.0817 13.8643V11.9368H20.442V8.99747H8.57061V11.9368H12.9301V13.8636C9.38668 14.0283 6.72192 14.7383 6.72192 15.5892C6.72192 16.4401 9.38668 17.1494 12.9301 17.3148V23.4915H16.081V17.3126C19.6163 17.1479 22.2767 16.4386 22.2767 15.5885C22.2767 14.7383 19.6185 14.029 16.081 13.8636L16.0817 13.8643Z" fill="white"/>
</g>
</g>
<defs>
<clipPath id="clip0_191_2577">
<rect width="30" height="30" rx="15" fill="white"/>
</clipPath>
<clipPath id="clip1_191_2577">
<rect width="25" height="22" fill="white" transform="translate(2 6)"/>
</clipPath>
</defs>
</svg>
