<svg width="22" height="20" viewBox="0 0 22 20" fill="none" xmlns="http://www.w3.org/2000/svg">
<path d="M11.0474 6.67423L14.136 9.68036L14.1507 9.5229C14.1507 7.94347 12.8319 6.65991 11.2092 6.65991L11.0474 6.67423Z" fill="#92959D"/>
<path d="M11.2091 4.75129C13.9154 4.75129 16.1118 6.889 16.1118 9.52294C16.1118 10.1385 15.9843 10.7254 15.7637 11.2646L18.6318 14.056C20.1124 12.8535 21.2792 11.298 21.9999 9.52294C20.2987 5.33346 16.1167 2.36548 11.2092 2.36548C9.8364 2.36548 8.52252 2.60405 7.30176 3.03349L9.41971 5.09006C9.97364 4.88012 10.5767 4.75129 11.2091 4.75129Z" fill="#92959D"/>
<path d="M1.40386 2.15061L3.63947 4.32648L4.08562 4.76071C2.46775 5.99179 1.18815 7.62848 0.42334 9.52279C2.11967 13.7123 6.30652 16.6803 11.2092 16.6803C12.729 16.6803 14.1802 16.394 15.5088 15.8738L15.9256 16.2794L18.7838 19.0661L20.034 17.8541L2.65403 0.933838L1.40386 2.15061ZM6.82622 7.42329L8.34114 8.89772C8.29702 9.10292 8.2676 9.30807 8.2676 9.52279C8.2676 11.1022 9.5864 12.3858 11.2092 12.3858C11.4298 12.3858 11.6406 12.3572 11.8466 12.3142L13.3615 13.7886C12.7094 14.1036 11.9838 14.2945 11.2092 14.2945C8.50293 14.2945 6.30652 12.1567 6.30652 9.52279C6.30652 8.76889 6.50265 8.06267 6.82622 7.42329Z" fill="#92959D"/>
</svg>
