<svg width="79" height="26" viewBox="0 0 79 26" fill="none" xmlns="http://www.w3.org/2000/svg">
<g clip-path="url(#clip0_409_3536)">
<path d="M34.2632 25.5816H27.8366L31.8531 0.435923H38.2804L34.2632 25.5816ZM22.4301 0.435923L16.3032 17.7313L15.5782 14.0069L15.5789 14.0083L13.4164 2.7C13.4164 2.7 13.155 0.435923 10.3679 0.435923H0.23897L0.120117 0.861698C0.120117 0.861698 3.21755 1.51818 6.84256 3.73585L12.426 25.5822H19.122L29.3467 0.435923H22.4301ZM72.9788 25.5816H78.8798L73.7348 0.43525H68.5687C66.1831 0.43525 65.602 2.3092 65.602 2.3092L56.0172 25.5816H62.7165L64.0563 21.8464H72.2261L72.9788 25.5816ZM65.9071 16.6867L69.2838 7.27658L71.1835 16.6867H65.9071ZM56.5197 6.48287L57.4368 1.08299C57.4368 1.08299 54.6068 -0.0133944 51.6566 -0.0133944C48.4674 -0.0133944 40.8939 1.40653 40.8939 8.31109C40.8939 14.8074 49.7827 14.8881 49.7827 18.3003C49.7827 21.7126 41.8097 21.1012 39.1784 18.9494L38.223 24.5955C38.223 24.5955 41.0926 26.0154 45.4769 26.0154C49.8626 26.0154 56.4787 23.7022 56.4787 17.4064C56.4787 10.8684 47.51 10.2597 47.51 7.41716C47.5106 4.57395 53.7696 4.93919 56.5197 6.48287Z" fill="#5B5B5B"/>
<path d="M15.5789 14.0076L13.4164 2.69933C13.4164 2.69933 13.155 0.435258 10.3679 0.435258H0.23897L0.120117 0.861033C0.120117 0.861033 4.98846 1.88881 9.65805 5.73962C14.1229 9.42026 15.5789 14.0076 15.5789 14.0076Z" fill="#949494"/>
</g>
<defs>
<clipPath id="clip0_409_3536">
<rect width="79" height="26" fill="white"/>
</clipPath>
</defs>
</svg>
