<svg width="16" height="12" viewBox="0 0 16 12" fill="none" xmlns="http://www.w3.org/2000/svg">
<path d="M15.0021 1.54964C14.476 1.78273 13.911 1.94023 13.3169 2.01142C13.9299 1.64464 14.3884 1.06737 14.6071 0.387328C14.0312 0.7294 13.4009 0.970182 12.7436 1.0992C12.3016 0.627265 11.7161 0.314456 11.0781 0.209342C10.4401 0.104229 9.78527 0.212692 9.21523 0.517893C8.64519 0.823094 8.19185 1.30796 7.92561 1.8972C7.65937 2.48645 7.59511 3.14711 7.74282 3.77662C6.5759 3.71803 5.43434 3.41473 4.39222 2.8864C3.35011 2.35807 2.43073 1.61652 1.69375 0.709877C1.44176 1.14456 1.29686 1.64855 1.29686 2.18529C1.29658 2.66848 1.41557 3.14427 1.64328 3.57045C1.87098 3.99662 2.20036 4.36 2.60218 4.62835C2.13617 4.61352 1.68044 4.4876 1.27293 4.26107V4.29887C1.27288 4.97657 1.5073 5.63341 1.93641 6.15794C2.36552 6.68247 2.96289 7.04239 3.62716 7.17662C3.19486 7.29362 2.74162 7.31085 2.30168 7.22702C2.4891 7.81014 2.85417 8.32005 3.34579 8.68537C3.83741 9.0507 4.43096 9.25315 5.04336 9.26437C4.00378 10.0805 2.71992 10.5231 1.39829 10.5212C1.16418 10.5212 0.930265 10.5076 0.697754 10.4802C2.03928 11.3428 3.60092 11.8006 5.19581 11.7988C10.5947 11.7988 13.5462 7.32719 13.5462 3.44903C13.5462 3.32303 13.543 3.19578 13.5374 3.06978C14.1115 2.65461 14.607 2.1405 15.0008 1.55153L15.0021 1.54964V1.54964Z" fill="#92959D"/>
</svg>
