<svg width="16" height="18" viewBox="0 0 16 18" fill="none" xmlns="http://www.w3.org/2000/svg">
<path d="M9.16991 2.91685V1.5191H9.80793C10.2274 1.5191 10.5675 1.179 10.5675 0.75955C10.5675 0.340096 10.2274 0 9.80793 0H6.19247C5.77302 0 5.43292 0.340096 5.43292 0.75955C5.43292 1.179 5.77302 1.5191 6.19247 1.5191H6.8305V2.91685C3.20058 3.48105 0.413574 6.62777 0.413574 10.4133C0.413574 14.5966 3.81697 17.9999 8.0002 17.9999C12.1834 17.9999 15.5868 14.5965 15.5868 10.4133C15.5868 6.62777 12.7998 3.48105 9.16991 2.91685V2.91685ZM8.0002 16.4809C4.65454 16.4809 1.93267 13.759 1.93267 10.4134C1.93267 7.06777 4.6546 4.34584 8.0002 4.34584C11.3458 4.34584 14.0677 7.06777 14.0677 10.4134C14.0677 13.759 11.3459 16.4809 8.0002 16.4809V16.4809Z" fill="#92959D"/>
<path d="M8.75982 10.0978V6.51944C8.75982 6.09998 8.41973 5.75989 8.00027 5.75989C7.58082 5.75989 7.24072 6.09998 7.24072 6.51944V10.5359C7.24072 10.6595 7.28994 10.7779 7.37744 10.865L9.5023 12.981C9.79962 13.277 10.2804 13.2759 10.5765 12.9787C10.8725 12.6815 10.8714 12.2005 10.5742 11.9045L8.75982 10.0978Z" fill="#92959D"/>
</svg>
