<svg width="16" height="21" viewBox="0 0 16 21" fill="none" xmlns="http://www.w3.org/2000/svg">
<path d="M15 20L14.3195 20.7328C14.611 21.0034 15.0351 21.0756 15.3997 20.9166C15.7643 20.7577 16 20.3977 16 20H15ZM1 20H0C0 20.3977 0.235704 20.7577 0.600282 20.9166C0.96486 21.0756 1.38899 21.0034 1.68045 20.7328L1 20ZM9.3609 14.7637L8.68045 15.4965L9.3609 14.7637ZM3 2H13V0H3V2ZM14 3V20H16V3H14ZM15.6805 19.2672L10.0414 14.0309L8.68045 15.4965L14.3195 20.7328L15.6805 19.2672ZM5.95865 14.0309L0.319549 19.2672L1.68045 20.7328L7.31955 15.4965L5.95865 14.0309ZM2 20V3H0V20H2ZM10.0414 14.0309C8.89031 12.9621 7.10969 12.9621 5.95865 14.0309L7.31955 15.4965C7.70323 15.1402 8.29677 15.1402 8.68045 15.4965L10.0414 14.0309ZM13 2C13.5523 2 14 2.44772 14 3H16C16 1.34315 14.6569 0 13 0V2ZM3 0C1.34315 0 0 1.34315 0 3H2C2 2.44772 2.44772 2 3 2V0Z" fill="#92959D"/>
</svg>
