<svg width="18" height="20" viewBox="0 0 18 20" fill="none" xmlns="http://www.w3.org/2000/svg">
<path d="M5 1V0C4.73478 0 4.48043 0.105357 4.29289 0.292893C4.10536 0.48043 4 0.734784 4 1L5 1ZM13 1L14 1C14 0.734784 13.8946 0.48043 13.7071 0.292893C13.5196 0.105357 13.2652 0 13 0V1ZM11.5 10C12.0523 10 12.5 9.55229 12.5 9C12.5 8.44772 12.0523 8 11.5 8V10ZM10 8C10 7.44772 9.55229 7 9 7C8.44772 7 8 7.44772 8 8H10ZM6.5 14C5.94772 14 5.5 14.4477 5.5 15C5.5 15.5523 5.94772 16 6.5 16V14ZM8 16C8 16.5523 8.44772 17 9 17C9.55229 17 10 16.5523 10 16H8ZM4 4C3.44772 4 3 4.44772 3 5C3 5.55228 3.44772 6 4 6V4ZM14 6C14.5523 6 15 5.55228 15 5C15 4.44772 14.5523 4 14 4V6ZM4.06111 18.6134L3.90949 19.6018L4.06111 18.6134ZM16.8464 14.8804L15.8519 14.9853L16.8464 14.8804ZM13.9389 18.6134L13.7873 17.625L13.9389 18.6134ZM10 5C10 5.60818 10.4197 5.96907 10.5972 6.1077C10.8017 6.26743 11.0709 6.41964 11.2817 6.54134C11.7487 6.81098 12.3078 7.13787 12.8921 7.67934C14.0301 8.73391 15.4043 10.739 15.8519 14.9853L17.8409 14.7756C17.3514 10.1323 15.8023 7.64948 14.2515 6.21235C13.4913 5.50797 12.7645 5.08807 12.2817 4.80932C12.0176 4.65682 11.896 4.58444 11.8284 4.53159C11.7337 4.45764 12 4.61796 12 5H10ZM7.44721 4.10557C6.81789 3.79091 6.43133 3.1196 6.21152 2.35028C6.10644 1.98248 6.0527 1.63571 6.02575 1.37969C6.0124 1.25285 6.00594 1.15132 6.00283 1.0844C6.00127 1.05101 6.00057 1.02647 6.00025 1.01196C6.00009 1.00471 6.00003 0.999991 6 0.997942C5.99999 0.996918 5.99999 0.996565 5.99999 0.996901C5.99999 0.997069 6 0.99741 6 0.997926C6 0.998183 6 0.998485 6 0.998831C6 0.999003 6 0.999296 6 0.999382C6 0.999685 6 1 5 1C4 1 4 1.00034 4 1.00069C4 1.00082 4 1.00118 4 1.00144C4 1.00197 4 1.00255 4 1.00317C4.00001 1.00441 4.00001 1.00584 4.00002 1.00746C4.00004 1.01068 4.00007 1.01465 4.00012 1.01933C4.00022 1.0287 4.0004 1.04094 4.00073 1.05591C4.00139 1.08583 4.00263 1.12672 4.00499 1.17732C4.00969 1.27837 4.01885 1.41902 4.03674 1.58906C4.07229 1.92679 4.14356 2.39252 4.28848 2.89972C4.56867 3.8804 5.18211 5.20909 6.55279 5.89443L7.44721 4.10557ZM5 2H13V0H5V2ZM7 6H11V4H7V6ZM13 1C12 1 12 0.999685 12 0.999382C12 0.999296 12 0.999003 12 0.99883C12 0.998485 12 0.998183 12 0.997925C12 0.99741 12 0.997069 12 0.996901C12 0.996565 12 0.996918 12 0.997942C12 0.999991 11.9999 1.00471 11.9998 1.01196C11.9994 1.02647 11.9987 1.05101 11.9972 1.0844C11.9941 1.15132 11.9876 1.25285 11.9742 1.37969C11.9473 1.63571 11.8936 1.98248 11.7885 2.35028C11.5687 3.1196 11.1821 3.79091 10.5528 4.10557L11.4472 5.89443C12.8179 5.20909 13.4313 3.8804 13.7115 2.89972C13.8564 2.39252 13.9277 1.92679 13.9633 1.58906C13.9812 1.41902 13.9903 1.27837 13.995 1.17732C13.9974 1.12672 13.9986 1.08583 13.9993 1.05591C13.9996 1.04094 13.9998 1.0287 13.9999 1.01933C13.9999 1.01465 14 1.01068 14 1.00746C14 1.00584 14 1.00441 14 1.00317C14 1.00255 14 1.00197 14 1.00144C14 1.00118 14 1.00082 14 1.00069C14 1.00034 14 1 13 1ZM6 5C6 4.61795 6.26629 4.45764 6.17162 4.53159C6.10396 4.58444 5.98237 4.65682 5.71826 4.80932C5.23549 5.08807 4.50867 5.50797 3.74853 6.21235C2.19765 7.64948 0.648596 10.1323 0.159073 14.7756L2.14805 14.9853C2.59572 10.739 3.96988 8.73391 5.10792 7.67934C5.69225 7.13787 6.25131 6.81098 6.71831 6.54134C6.92908 6.41964 7.19835 6.26743 7.40283 6.1077C7.5803 5.96907 8 5.60818 8 5H6ZM9 13H10V11H9V13ZM11.5 8H9V10H11.5V8ZM10 9V8H8V9H10ZM9 14H6.5V16H9V14ZM8 15V16H10V15H8ZM8 9V12H10V9H8ZM8 12V15H10V12H8ZM7 4H4V6H7V4ZM11 6H14V4H11V6ZM13.7873 17.625C12.3431 17.8465 10.715 18 9 18V20C10.8322 20 12.5627 19.8362 14.0905 19.6018L13.7873 17.625ZM9 18C7.28501 18 5.65691 17.8465 4.21273 17.625L3.90949 19.6018C5.43726 19.8362 7.16783 20 9 20V18ZM10 14H9V16H10V14ZM8 13H9V11H8V13ZM8 10H9V8H8V10ZM10.5 13.5C10.5 13.7761 10.2761 14 10 14V16C11.3807 16 12.5 14.8807 12.5 13.5H10.5ZM10 13C10.2761 13 10.5 13.2239 10.5 13.5H12.5C12.5 12.1193 11.3807 11 10 11V13ZM7.5 10.5C7.5 10.2239 7.72386 10 8 10V8C6.61929 8 5.5 9.11929 5.5 10.5H7.5ZM5.5 10.5C5.5 11.8807 6.61929 13 8 13V11C7.72386 11 7.5 10.7761 7.5 10.5H5.5ZM0.159073 14.7756C-0.0906758 17.1445 1.58006 19.2445 3.90949 19.6018L4.21273 17.625C2.91366 17.4257 2.01292 16.267 2.14805 14.9853L0.159073 14.7756ZM15.8519 14.9853C15.9871 16.267 15.0863 17.4257 13.7873 17.625L14.0905 19.6018C16.4199 19.2445 18.0907 17.1445 17.8409 14.7756L15.8519 14.9853Z" fill="#92959D"/>
</svg>
