<svg width="18" height="20" viewBox="0 0 18 20" fill="none" xmlns="http://www.w3.org/2000/svg">
<path d="M1 4H3M3 4V3C3 1.89543 3.89543 1 5 1H15C16.1046 1 17 1.89543 17 3V17C17 18.1046 16.1046 19 15 19H5C3.89543 19 3 18.1046 3 17V16M3 4V8M1 8H3M3 8V12M1 12H3M3 12V16M1 16H3M12 7C12 8.10457 11.1046 9 10 9C8.89543 9 8 8.10457 8 7C8 5.89543 8.89543 5 10 5C11.1046 5 12 5.89543 12 7ZM14 14C14 15.1046 12.2091 16 10 16C7.79086 16 6 15.1046 6 14C6 12.8954 7.79086 12 10 12C12.2091 12 14 12.8954 14 14Z" stroke="#92959D" stroke-width="2" stroke-linecap="round" stroke-linejoin="round"/>
</svg>
