<svg width="20" height="20" viewBox="0 0 20 20" fill="none" xmlns="http://www.w3.org/2000/svg">
<path d="M18.6144 12.6144L19.5714 12.9045C19.6784 12.5514 19.5823 12.1682 19.3215 11.9073C19.0606 11.6465 18.6774 11.5504 18.3243 11.6574L18.6144 12.6144ZM7.38561 1.38562L8.34261 1.67568C8.44962 1.32264 8.35356 0.939365 8.09271 0.678514C7.83186 0.417662 7.44858 0.321609 7.09554 0.428612L7.38561 1.38562ZM18.3243 11.6574C17.59 11.88 16.8099 12 16 12V14C17.0086 14 17.9841 13.8504 18.9045 13.5714L18.3243 11.6574ZM16 12C11.5817 12 8 8.41829 8 4.00002H6C6 9.52286 10.4772 14 16 14V12ZM8 4.00002C8 3.1901 8.12004 2.41003 8.34261 1.67568L6.4286 1.09556C6.14964 2.01595 6 2.99141 6 4.00002H8ZM2 10C2 6.39146 4.38998 3.3385 7.67567 2.34263L7.09554 0.428612C2.99017 1.67292 0 5.48596 0 10H2ZM10 18C5.58172 18 2 14.4183 2 10H0C0 15.5229 4.47715 20 10 20V18ZM17.6574 12.3243C16.6615 15.61 13.6086 18 10 18V20C14.5141 20 18.3271 17.0098 19.5714 12.9045L17.6574 12.3243Z" fill="#92959D"/>
</svg>
