<svg width="52" height="21" viewBox="0 0 52 21" fill="none" xmlns="http://www.w3.org/2000/svg">
<path d="M14.656 0.250671V20.7348H10.6745L4.2451 7.91814V20.7348H0.333984V0.250671H4.25916L10.7449 13.208V0.250671H14.656Z" fill="#1E2329"/>
<path d="M32.6049 17.3301V20.7348H23.6994V17.3301H32.6049ZM24.9796 0.250671V20.7348H20.8575V0.250671H24.9796ZM31.409 8.55123V11.8574H23.6994V8.55123H31.409ZM32.5767 0.250671V3.66938H23.6994V0.250671H32.5767Z" fill="#1E2329"/>
<path d="M41.5216 0.250671L44.4479 7.08808L47.2336 0.250671H51.7778L46.8396 10.3942L51.8762 20.7348H47.1491L44.2369 13.7426L41.3247 20.7348H36.6961L41.8171 10.3098L36.8086 0.250671H41.5216Z" fill="#1E2329"/>
</svg>
