<svg width="18" height="17" viewBox="0 0 18 17" fill="none" xmlns="http://www.w3.org/2000/svg">
<path d="M1 16L0.105573 15.5528C-0.0690774 15.9021 -0.0244069 16.3211 0.219958 16.6257C0.464323 16.9304 0.863666 17.0649 1.24254 16.9701L1 16ZM16 8.5C16 12.0899 13.0899 15 9.5 15V17C14.1944 17 18 13.1944 18 8.5H16ZM3 8.5C3 4.91015 5.91015 2 9.5 2V0C4.80558 0 1 3.80558 1 8.5H3ZM9.5 2C13.0899 2 16 4.91015 16 8.5H18C18 3.80558 14.1944 0 9.5 0V2ZM9.5 15C9.01772 15 8.42778 14.8165 7.69804 14.5576C7.3628 14.4386 6.98757 14.301 6.64008 14.1977C6.29816 14.0961 5.89708 14 5.5 14V16C5.60292 16 5.78138 16.0289 6.07014 16.1148C6.35332 16.199 6.65991 16.3114 7.02921 16.4424C7.70855 16.6835 8.61861 17 9.5 17V15ZM5.5 14C5.33739 14 5.13628 14.0326 4.99174 14.0578C4.81787 14.088 4.60765 14.1298 4.37993 14.1777C3.92315 14.2739 3.36737 14.401 2.83346 14.5266C2.29829 14.6525 1.77953 14.7783 1.39494 14.8725C1.20253 14.9196 1.04344 14.9589 0.932338 14.9864C0.876781 15.0002 0.833209 15.011 0.803456 15.0184C0.788579 15.0221 0.777155 15.0249 0.769414 15.0269C0.765543 15.0278 0.762593 15.0286 0.760592 15.0291C0.759591 15.0293 0.758828 15.0295 0.758306 15.0296C0.758044 15.0297 0.757843 15.0298 0.757703 15.0298C0.757633 15.0298 0.757573 15.0298 0.757538 15.0298C0.757494 15.0299 0.757464 15.0299 1 16C1.24254 16.9701 1.24254 16.9701 1.24255 16.9701C1.24258 16.9701 1.24261 16.9701 1.24266 16.9701C1.24277 16.9701 1.24293 16.97 1.24315 16.97C1.2436 16.9699 1.24429 16.9697 1.24521 16.9695C1.24706 16.969 1.24985 16.9683 1.25357 16.9674C1.26099 16.9655 1.27209 16.9628 1.28663 16.9591C1.31572 16.9519 1.35857 16.9413 1.41337 16.9277C1.52297 16.9005 1.68028 16.8617 1.87068 16.815C2.25172 16.7217 2.76421 16.5975 3.29154 16.4734C3.82013 16.349 4.3581 16.2261 4.79195 16.1348C5.00954 16.089 5.19385 16.0526 5.33443 16.0282C5.50435 15.9986 5.53761 16 5.5 16V14ZM1 16C1.89443 16.4472 1.89446 16.4471 1.8945 16.4471C1.89452 16.447 1.89457 16.4469 1.89461 16.4468C1.8947 16.4467 1.8948 16.4465 1.89493 16.4462C1.8952 16.4457 1.89555 16.445 1.89599 16.4441C1.89687 16.4423 1.8981 16.4398 1.89969 16.4367C1.90285 16.4303 1.9074 16.4211 1.91323 16.4093C1.92491 16.3857 1.94175 16.3515 1.96302 16.308C2.00555 16.2209 2.06589 16.0962 2.13811 15.9437C2.28224 15.6394 2.47528 15.2213 2.66914 14.7689C2.86189 14.3192 3.06131 13.8221 3.21431 13.3631C3.35507 12.9408 3.5 12.4284 3.5 12H1.5C1.5 12.0716 1.45743 12.3092 1.31694 12.7306C1.18869 13.1154 1.01311 13.5558 0.830855 13.9811C0.649724 14.4037 0.467759 14.7981 0.330637 15.0875C0.262239 15.2319 0.205389 15.3494 0.165886 15.4303C0.146142 15.4707 0.130757 15.502 0.120457 15.5228C0.115308 15.5332 0.111432 15.541 0.10892 15.5461C0.107664 15.5486 0.10675 15.5504 0.106188 15.5516C0.105907 15.5521 0.105715 15.5525 0.105612 15.5527C0.10556 15.5528 0.105531 15.5529 0.105524 15.5529C0.105521 15.5529 0.105533 15.5529 0.105532 15.5529C0.105549 15.5528 0.105573 15.5528 1 16ZM3.5 12C3.5 11.3828 3.35053 10.6221 3.23148 10.0122C3.09726 9.32447 3 8.81701 3 8.5H1C1 9.05958 1.15275 9.80211 1.26852 10.3953C1.39947 11.0662 1.5 11.6172 1.5 12H3.5Z" fill="#92959D"/>
</svg>
