<svg width="20" height="20" viewBox="0 0 20 20" fill="none" xmlns="http://www.w3.org/2000/svg">
<path d="M18 10C18 14.4183 14.4183 18 10 18V20C15.5228 20 20 15.5228 20 10H18ZM10 18C5.58172 18 2 14.4183 2 10H0C0 15.5228 4.47715 20 10 20V18ZM2 10C2 5.58172 5.58172 2 10 2V0C4.47715 0 0 4.47715 0 10H2ZM10 2C14.4183 2 18 5.58172 18 10H20C20 4.47715 15.5228 0 10 0V2ZM1 10C1 11 1.00002 11 1.00006 11C1.0001 11 1.00017 11 1.00025 11C1.00033 11 1.00044 11 1.00056 11C1.00069 11 1.00083 11 1.001 11C1.00117 11 1.00135 11 1.00156 11C1.00177 11 1.002 11 1.00225 11C1.0025 11 1.00277 11 1.00306 11C1.00335 11 1.00366 11 1.00399 11C1.00432 11 1.00467 11 1.00504 11C1.00542 11 1.00581 11 1.00622 11C1.00663 11 1.00707 11 1.00752 11C1.00798 11 1.00845 11 1.00894 11C1.00944 11 1.00995 11 1.01049 11C1.01102 11 1.01158 11 1.01215 11C1.01273 11 1.01332 11 1.01394 11C1.01455 11 1.01519 11 1.01584 11C1.0165 11 1.01717 11 1.01787 11C1.01856 11 1.01928 11 1.02001 11C1.02075 11 1.02151 11 1.02228 11C1.02306 11 1.02385 11 1.02467 11C1.02548 11 1.02631 11 1.02717 11C1.02802 11 1.0289 11 1.02979 11C1.03068 11 1.0316 11 1.03253 11C1.03346 11 1.03442 11 1.03539 11C1.03636 11 1.03735 11 1.03837 11C1.03938 11 1.04041 11 1.04146 11C1.04251 11 1.04358 11 1.04467 11C1.04576 11 1.04687 11 1.048 11C1.04912 11 1.05027 11 1.05144 11C1.05261 11 1.05379 11 1.055 11C1.0562 11 1.05743 11 1.05867 11C1.05991 11 1.06118 11 1.06246 11C1.06374 11 1.06504 11 1.06636 11C1.06769 11 1.06902 11 1.07038 11C1.07174 11 1.07312 11 1.07452 11C1.07591 11 1.07733 11 1.07876 11C1.0802 11 1.08165 11 1.08312 11C1.0846 11 1.08609 11 1.0876 11C1.08911 11 1.09064 11 1.09218 11C1.09373 11 1.0953 11 1.09688 11C1.09847 11 1.10007 11 1.10169 11C1.10332 11 1.10496 11 1.10662 11C1.10828 11 1.10996 11 1.11165 11C1.11335 11 1.11506 11 1.1168 11C1.11853 11 1.12028 11 1.12206 11C1.12383 11 1.12562 11 1.12742 11C1.12923 11 1.13106 11 1.1329 11C1.13474 11 1.13661 11 1.13849 11C1.14037 11 1.14227 11 1.14419 11C1.1461 11 1.14804 11 1.14999 11C1.15194 11 1.15392 11 1.15591 11C1.1579 11 1.1599 11 1.16193 11C1.16396 11 1.166 11 1.16806 11C1.17012 11 1.1722 11 1.1743 11C1.1764 11 1.17852 11 1.18065 11C1.18278 11 1.18493 11 1.1871 11C1.18927 11 1.19146 11 1.19367 11C1.19587 11 1.19809 11 1.20033 11C1.20257 11 1.20483 11 1.20711 11C1.20938 11 1.21168 11 1.21399 11C1.2163 11 1.21863 11 1.22097 11C1.22332 11 1.22568 11 1.22806 11C1.23045 11 1.23284 11 1.23526 11C1.23768 11 1.24011 11 1.24256 11C1.24501 11 1.24748 11 1.24996 11C1.25245 11 1.25495 11 1.25747 11C1.25999 11 1.26253 11 1.26509 11C1.26764 11 1.27021 11 1.2728 11C1.27539 11 1.278 11 1.28062 11C1.28324 11 1.28588 11 1.28854 11C1.2912 11 1.29387 11 1.29656 11C1.29925 11 1.30196 11 1.30469 11C1.30741 11 1.31015 11 1.31291 11C1.31567 11 1.31845 11 1.32124 11C1.32403 11 1.32684 11 1.32967 11C1.3325 11 1.33534 11 1.3382 11C1.34106 11 1.34393 11 1.34683 11C1.34972 11 1.35263 11 1.35556 11C1.35848 11 1.36143 11 1.36438 11C1.36734 11 1.37032 11 1.37331 11C1.3763 11 1.37931 11 1.38234 11C1.38536 11 1.38841 11 1.39146 11C1.39452 11 1.3976 11 1.40069 11C1.40378 11 1.40689 11 1.41001 11C1.41313 11 1.41627 11 1.41943 11C1.42258 11 1.42576 11 1.42894 11C1.43213 11 1.43534 11 1.43856 11C1.44178 11 1.44501 11 1.44827 11C1.45152 11 1.45479 11 1.45807 11C1.46136 11 1.46466 11 1.46797 11C1.47129 11 1.47462 11 1.47797 11C1.48132 11 1.48468 11 1.48806 11C1.49144 11 1.49484 11 1.49825 11C1.50166 11 1.50509 11 1.50853 11C1.51198 11 1.51543 11 1.51891 11C1.52238 11 1.52587 11 1.52938 11C1.53288 11 1.53641 11 1.53994 11C1.54348 11 1.54703 11 1.5506 11C1.55417 11 1.55775 11 1.56135 11C1.56495 11 1.56856 11 1.57219 11C1.57582 11 1.57946 11 1.58312 11C1.58678 11 1.59046 11 1.59415 11C1.59784 11 1.60155 11 1.60527 11C1.60899 11 1.61273 11 1.61648 11C1.62023 11 1.624 11 1.62778 11C1.63156 11 1.63536 11 1.63917 11C1.64298 11 1.64681 11 1.65065 11C1.65449 11 1.65835 11 1.66222 11C1.66609 11 1.66998 11 1.67388 11C1.67778 11 1.6817 11 1.68563 11C1.68956 11 1.69351 11 1.69747 11C1.70143 11 1.7054 11 1.70939 11C1.71338 11 1.71739 11 1.72141 11C1.72543 11 1.72946 11 1.73351 11C1.73756 11 1.74162 11 1.7457 11C1.74978 11 1.75387 11 1.75798 11C1.76209 11 1.76621 11 1.77034 11C1.77448 11 1.77863 11 1.7828 11C1.78696 11 1.79114 11 1.79533 11C1.79953 11 1.80373 11 1.80796 11C1.81218 11 1.81641 11 1.82066 11C1.82491 11 1.82918 11 1.83346 11C1.83774 11 1.84203 11 1.84634 11C1.85064 11 1.85497 11 1.8593 11C1.86364 11 1.86798 11 1.87235 11C1.87671 11 1.88109 11 1.88548 11C1.88987 11 1.89428 11 1.89869 11C1.90311 11 1.90755 11 1.91199 11C1.91644 11 1.9209 11 1.92537 11C1.92985 11 1.93434 11 1.93884 11C1.94334 11 1.94785 11 1.95238 11C1.95691 11 1.96145 11 1.96601 11C1.97057 11 1.97514 11 1.97972 11C1.9843 11 1.9889 11 1.99351 11C1.99812 11 2.00275 11 2.00738 11C2.01202 11 2.01667 11 2.02133 11C2.026 11 2.03068 11 2.03537 11C2.04006 11 2.04476 11 2.04948 11C2.0542 11 2.05893 11 2.06367 11C2.06841 11 2.07317 11 2.07794 11C2.08271 11 2.08749 11 2.09229 11C2.09709 11 2.1019 11 2.10672 11C2.11154 11 2.11638 11 2.12123 11C2.12607 11 2.13094 11 2.13581 11C2.14068 11 2.14557 11 2.15047 11C2.15537 11 2.16029 11 2.16521 11C2.17014 11 2.17508 11 2.18003 11C2.18498 11 2.18994 11 2.19492 11C2.1999 11 2.20489 11 2.20989 11C2.21489 11 2.21991 11 2.22493 11C2.22996 11 2.235 11 2.24005 11C2.24511 11 2.25017 11 2.25525 11C2.26033 11 2.26542 11 2.27052 11C2.27562 11 2.28074 11 2.28587 11C2.29099 11 2.29613 11 2.30128 11C2.30644 11 2.3116 11 2.31678 11C2.32195 11 2.32714 11 2.33234 11C2.33754 11 2.34276 11 2.34798 11C2.35321 11 2.35845 11 2.3637 11C2.36895 11 2.37421 11 2.37948 11C2.38476 11 2.39004 11 2.39534 11C2.40064 11 2.40595 11 2.41127 11C2.41659 11 2.42192 11 2.42727 11C2.43262 11 2.43797 11 2.44334 11C2.44871 11 2.45409 11 2.45948 11C2.46488 11 2.47028 11 2.4757 11C2.48111 11 2.48654 11 2.49198 11C2.49742 11 2.50287 11 2.50834 11C2.5138 11 2.51927 11 2.52476 11C2.53024 11 2.53574 11 2.54125 11C2.54676 11 2.55228 11 2.55781 11C2.56334 11 2.56889 11 2.57444 11C2.58 11 2.58556 11 2.59114 11C2.59672 11 2.60231 11 2.60791 11C2.61351 11 2.61912 11 2.62474 11C2.63036 11 2.636 11 2.64164 11C2.64729 11 2.65294 11 2.65861 11C2.66428 11 2.66995 11 2.67564 11C2.68133 11 2.68703 11 2.69274 11C2.69845 11 2.70418 11 2.70991 11C2.71564 11 2.72139 11 2.72714 11C2.7329 11 2.73866 11 2.74444 11C2.75022 11 2.756 11 2.7618 11C2.7676 11 2.77341 11 2.77923 11C2.78505 11 2.79088 11 2.79672 11C2.80256 11 2.80841 11 2.81427 11C2.82013 11 2.82601 11 2.83189 11C2.83777 11 2.84367 11 2.84957 11C2.85548 11 2.86139 11 2.86732 11C2.87324 11 2.87918 11 2.88512 11C2.89107 11 2.89703 11 2.90299 11C2.90896 11 2.91494 11 2.92092 11C2.92691 11 2.93291 11 2.93892 11C2.94492 11 2.95094 11 2.95697 11C2.963 11 2.96904 11 2.97508 11C2.98113 11 2.98719 11 2.99326 11C2.99933 11 3.00541 11 3.0115 11C3.01758 11 3.02368 11 3.02979 11C3.0359 11 3.04202 11 3.04815 11C3.05427 11 3.06041 11 3.06656 11C3.07271 11 3.07887 11 3.08503 11C3.0912 11 3.09738 11 3.10356 11C3.10975 11 3.11595 11 3.12215 11C3.12836 11 3.13458 11 3.1408 11C3.14703 11 3.15326 11 3.15951 11C3.16575 11 3.17201 11 3.17827 11C3.18453 11 3.19081 11 3.19709 11C3.20337 11 3.20966 11 3.21596 11C3.22227 11 3.22858 11 3.2349 11C3.24122 11 3.24755 11 3.25388 11C3.26022 11 3.26657 11 3.27293 11C3.27928 11 3.28565 11 3.29203 11C3.2984 11 3.30479 11 3.31118 11C3.31757 11 3.32398 11 3.33039 11C3.3368 11 3.34322 11 3.34965 11C3.35608 11 3.36252 11 3.36897 11C3.37541 11 3.38187 11 3.38834 11C3.3948 11 3.40128 11 3.40776 11C3.41424 11 3.42074 11 3.42724 11C3.43374 11 3.44025 11 3.44676 11C3.45328 11 3.45981 11 3.46635 11C3.47288 11 3.47942 11 3.48598 11C3.49253 11 3.49909 11 3.50566 11C3.51223 11 3.51881 11 3.5254 11C3.53198 11 3.53858 11 3.54518 11C3.55179 11 3.5584 11 3.56502 11C3.57164 11 3.57827 11 3.58491 11C3.59154 11 3.59819 11 3.60484 11C3.6115 11 3.61816 11 3.62483 11C3.6315 11 3.63818 11 3.64487 11C3.65155 11 3.65825 11 3.66495 11C3.67165 11 3.67837 11 3.68508 11C3.6918 11 3.69853 11 3.70527 11C3.712 11 3.71874 11 3.7255 11C3.73225 11 3.73901 11 3.74577 11C3.75254 11 3.75931 11 3.7661 11C3.77288 11 3.77967 11 3.78647 11C3.79326 11 3.80007 11 3.80688 11C3.8137 11 3.82052 11 3.82735 11C3.83418 11 3.84101 11 3.84786 11C3.8547 11 3.86155 11 3.86841 11C3.87527 11 3.88214 11 3.88901 11C3.89589 11 3.90277 11 3.90966 11C3.91655 11 3.92344 11 3.93035 11C3.93725 11 3.94416 11 3.95108 11C3.958 11 3.96493 11 3.97186 11C3.97879 11 3.98573 11 3.99268 11C3.99963 11 4.00658 11 4.01355 11C4.02051 11 4.02748 11 4.03445 11C4.04143 11 4.04841 11 4.0554 11C4.06239 11 4.06939 11 4.0764 11C4.0834 11 4.09041 11 4.09743 11C4.10445 11 4.11147 11 4.11851 11C4.12554 11 4.13258 11 4.13962 11C4.14667 11 4.15372 11 4.16078 11C4.16784 11 4.17491 11 4.18198 11C4.18905 11 4.19613 11 4.20322 11C4.21031 11 4.2174 11 4.2245 11C4.2316 11 4.2387 11 4.24582 11C4.25293 11 4.26005 11 4.26717 11C4.2743 11 4.28143 11 4.28857 11C4.29571 11 4.30285 11 4.31 11C4.31716 11 4.32431 11 4.33148 11C4.33864 11 4.34581 11 4.35299 11C4.36017 11 4.36735 11 4.37454 11C4.38173 11 4.38892 11 4.39612 11C4.40332 11 4.41053 11 4.41775 11C4.42496 11 4.43218 11 4.4394 11C4.44663 11 4.45386 11 4.4611 11C4.46834 11 4.47558 11 4.48283 11C4.49008 11 4.49734 11 4.5046 11C4.51186 11 4.51913 11 4.5264 11C4.53367 11 4.54095 11 4.54824 11C4.55552 11 4.56281 11 4.57011 11C4.5774 11 4.58471 11 4.59201 11C4.59932 11 4.60664 11 4.61395 11C4.62127 11 4.6286 11 4.63593 11C4.64326 11 4.65059 11 4.65793 11C4.66527 11 4.67262 11 4.67997 11C4.68732 11 4.69468 11 4.70204 11C4.70941 11 4.71678 11 4.72415 11C4.73152 11 4.7389 11 4.74628 11C4.75367 11 4.76106 11 4.76845 11C4.77585 11 4.78325 11 4.79065 11C4.79806 11 4.80547 11 4.81288 11C4.8203 11 4.82772 11 4.83514 11C4.84257 11 4.85 11 4.85743 11C4.86487 11 4.87231 11 4.87975 11C4.8872 11 4.89465 11 4.9021 11C4.90956 11 4.91702 11 4.92448 11C4.93195 11 4.93941 11 4.94689 11C4.95436 11 4.96184 11 4.96933 11C4.97681 11 4.9843 11 4.99179 11C4.99928 11 5.00678 11 5.01428 11C5.02178 11 5.02929 11 5.0368 11C5.04431 11 5.05183 11 5.05935 11C5.06687 11 5.0744 11 5.08192 11C5.08945 11 5.09699 11 5.10453 11C5.11206 11 5.11961 11 5.12715 11C5.1347 11 5.14225 11 5.14981 11C5.15736 11 5.16492 11 5.17248 11C5.18005 11 5.18762 11 5.19519 11C5.20276 11 5.21034 11 5.21792 11C5.2255 11 5.23308 11 5.24067 11C5.24826 11 5.25585 11 5.26345 11C5.27104 11 5.27864 11 5.28625 11C5.29385 11 5.30146 11 5.30907 11C5.31669 11 5.3243 11 5.33192 11C5.33954 11 5.34717 11 5.35479 11C5.36242 11 5.37005 11 5.37769 11C5.38532 11 5.39296 11 5.4006 11C5.40824 11 5.41589 11 5.42354 11C5.43119 11 5.43884 11 5.4465 11C5.45416 11 5.46182 11 5.46948 11C5.47714 11 5.48481 11 5.49248 11C5.50015 11 5.50783 11 5.5155 11C5.52318 11 5.53086 11 5.53855 11C5.54623 11 5.55392 11 5.56161 11C5.5693 11 5.57699 11 5.58469 11C5.59239 11 5.60009 11 5.60779 11C5.61549 11 5.6232 11 5.63091 11C5.63862 11 5.64633 11 5.65405 11C5.66176 11 5.66948 11 5.6772 11C5.68493 11 5.69265 11 5.70038 11C5.70811 11 5.71584 11 5.72357 11C5.7313 11 5.73904 11 5.74678 11C5.75452 11 5.76226 11 5.77001 11C5.77775 11 5.7855 11 5.79325 11C5.801 11 5.80875 11 5.81651 11C5.82426 11 5.83202 11 5.83978 11C5.84754 11 5.85531 11 5.86307 11C5.87084 11 5.87861 11 5.88638 11C5.89415 11 5.90192 11 5.9097 11C5.91747 11 5.92525 11 5.93303 11C5.94081 11 5.9486 11 5.95638 11C5.96417 11 5.97196 11 5.97975 11C5.98754 11 5.99533 11 6.00312 11C6.01092 11 6.01871 11 6.02651 11C6.03431 11 6.04211 11 6.04991 11C6.05772 11 6.06552 11 6.07333 11C6.08114 11 6.08895 11 6.09676 11C6.10457 11 6.11238 11 6.1202 11C6.12801 11 6.13583 11 6.14365 11C6.15147 11 6.15929 11 6.16711 11C6.17493 11 6.18276 11 6.19058 11C6.19841 11 6.20624 11 6.21407 11C6.2219 11 6.22973 11 6.23756 11C6.24539 11 6.25323 11 6.26107 11C6.2689 11 6.27674 11 6.28458 11C6.29242 11 6.30026 11 6.3081 11C6.31594 11 6.32379 11 6.33163 11C6.33948 11 6.34732 11 6.35517 11C6.36302 11 6.37087 11 6.37872 11C6.38657 11 6.39442 11 6.40228 11C6.41013 11 6.41798 11 6.42584 11C6.4337 11 6.44155 11 6.44941 11C6.45727 11 6.46513 11 6.47299 11C6.48085 11 6.48871 11 6.49657 11C6.50444 11 6.5123 11 6.52016 11C6.52803 11 6.53589 11 6.54376 11C6.55163 11 6.55949 11 6.56736 11C6.57523 11 6.5831 11 6.59097 11C6.59884 11 6.60671 11 6.61458 11C6.62245 11 6.63033 11 6.6382 11C6.64607 11 6.65395 11 6.66182 11C6.66969 11 6.67757 11 6.68544 11C6.69332 11 6.7012 11 6.70907 11C6.71695 11 6.72483 11 6.7327 11C6.74058 11 6.74846 11 6.75634 11C6.76422 11 6.7721 11 6.77998 11C6.78786 11 6.79574 11 6.80362 11C6.8115 11 6.81938 11 6.82726 11C6.83514 11 6.84302 11 6.8509 11C6.85878 11 6.86666 11 6.87454 11C6.88243 11 6.89031 11 6.89819 11C6.90607 11 6.91395 11 6.92183 11C6.92972 11 6.9376 11 6.94548 11C6.95336 11 6.96124 11 6.96913 11C6.97701 11 6.98489 11 6.99277 11C7.00065 11 7.00853 11 7.01642 11C7.0243 11 7.03218 11 7.04006 11C7.04794 11 7.05582 11 7.0637 11C7.07158 11 7.07946 11 7.08734 11C7.09522 11 7.1031 11 7.11098 11C7.11886 11 7.12674 11 7.13461 11C7.14249 11 7.15037 11 7.15825 11C7.16612 11 7.174 11 7.18188 11C7.18975 11 7.19763 11 7.2055 11C7.21338 11 7.22125 11 7.22912 11C7.237 11 7.24487 11 7.25274 11C7.26061 11 7.26849 11 7.27636 11C7.28423 11 7.2921 11 7.29997 11C7.30783 11 7.3157 11 7.32357 11C7.33144 11 7.3393 11 7.34717 11C7.35503 11 7.3629 11 7.37076 11C7.37862 11 7.38649 11 7.39435 11C7.40221 11 7.41007 11 7.41793 11C7.42579 11 7.43364 11 7.4415 11C7.44936 11 7.45721 11 7.46507 11C7.47292 11 7.48077 11 7.48863 11C7.49648 11 7.50433 11 7.51218 11C7.52003 11 7.52787 11 7.53572 11C7.54357 11 7.55141 11 7.55926 11C7.5671 11 7.57494 11 7.58278 11C7.59062 11 7.59846 11 7.6063 11C7.61414 11 7.62197 11 7.62981 11C7.63764 11 7.64547 11 7.6533 11C7.66113 11 7.66896 11 7.67679 11C7.68462 11 7.69244 11 7.70027 11C7.70809 11 7.71591 11 7.72373 11C7.73155 11 7.73937 11 7.74719 11C7.755 11 7.76282 11 7.77063 11C7.77844 11 7.78625 11 7.79406 11C7.80187 11 7.80968 11 7.81748 11C7.82529 11 7.83309 11 7.84089 11C7.84869 11 7.85649 11 7.86429 11C7.87208 11 7.87988 11 7.88767 11C7.89546 11 7.90325 11 7.91103 11C7.91882 11 7.92661 11 7.93439 11C7.94217 11 7.94995 11 7.95773 11C7.96551 11 7.97328 11 7.98105 11C7.98883 11 7.9966 11 8.00437 11C8.01213 11 8.0199 11 8.02766 11C8.03542 11 8.04318 11 8.05094 11C8.0587 11 8.06645 11 8.07421 11C8.08196 11 8.08971 11 8.09746 11C8.1052 11 8.11295 11 8.12069 11C8.12843 11 8.13617 11 8.1439 11C8.15164 11 8.15937 11 8.1671 11C8.17483 11 8.18256 11 8.19028 11C8.19801 11 8.20573 11 8.21344 11C8.22116 11 8.22888 11 8.23659 11C8.2443 11 8.25201 11 8.25972 11C8.26742 11 8.27512 11 8.28282 11C8.29052 11 8.29822 11 8.30591 11C8.3136 11 8.32129 11 8.32898 11C8.33667 11 8.34435 11 8.35203 11C8.35971 11 8.36739 11 8.37506 11C8.38273 11 8.3904 11 8.39807 11C8.40573 11 8.4134 11 8.42106 11C8.42872 11 8.43637 11 8.44402 11C8.45167 11 8.45932 11 8.46697 11C8.47461 11 8.48225 11 8.48989 11C8.49753 11 8.50516 11 8.51279 11C8.52042 11 8.52805 11 8.53567 11C8.5433 11 8.55091 11 8.55853 11C8.56614 11 8.57376 11 8.58136 11C8.58897 11 8.59657 11 8.60417 11C8.61177 11 8.61937 11 8.62696 11C8.63455 11 8.64214 11 8.64972 11C8.6573 11 8.66488 11 8.67246 11C8.68003 11 8.6876 11 8.69517 11C8.70274 11 8.7103 11 8.71786 11C8.72542 11 8.73297 11 8.74052 11C8.74807 11 8.75562 11 8.76316 11C8.7707 11 8.77823 11 8.78577 11C8.7933 11 8.80083 11 8.80835 11C8.81588 11 8.82339 11 8.83091 11C8.83842 11 8.84593 11 8.85344 11C8.86094 11 8.86844 11 8.87594 11C8.88344 11 8.89093 11 8.89842 11C8.9059 11 8.91339 11 8.92086 11C8.92834 11 8.93581 11 8.94328 11C8.95075 11 8.95821 11 8.96567 11C8.97313 11 8.98058 11 8.98803 11C8.99548 11 9.00292 11 9.01036 11C9.0178 11 9.02523 11 9.03266 11C9.04009 11 9.04752 11 9.05493 11C9.06235 11 9.06977 11 9.07718 11C9.08458 11 9.09199 11 9.09939 11C9.10678 11 9.11418 11 9.12156 11C9.12895 11 9.13633 11 9.14371 11C9.15109 11 9.15846 11 9.16583 11C9.17319 11 9.18055 11 9.18791 11C9.19527 11 9.20262 11 9.20996 11C9.21731 11 9.22465 11 9.23198 11C9.23931 11 9.24664 11 9.25396 11C9.26129 11 9.2686 11 9.27592 11C9.28323 11 9.29053 11 9.29783 11C9.30513 11 9.31243 11 9.31972 11C9.32701 11 9.33429 11 9.34157 11C9.34884 11 9.35612 11 9.36338 11C9.37065 11 9.37791 11 9.38516 11C9.39242 11 9.39966 11 9.40691 11C9.41415 11 9.42138 11 9.42861 11C9.43584 11 9.44307 11 9.45029 11C9.4575 11 9.46472 11 9.47192 11C9.47913 11 9.48633 11 9.49352 11C9.50071 11 9.5079 11 9.51508 11C9.52226 11 9.52944 11 9.53661 11C9.54378 11 9.55094 11 9.55809 11C9.56525 11 9.5724 11 9.57954 11C9.58669 11 9.59382 11 9.60095 11C9.60808 11 9.61521 11 9.62232 11C9.62944 11 9.63655 11 9.64366 11C9.65076 11 9.65786 11 9.66495 11C9.67204 11 9.67912 11 9.6862 11C9.69328 11 9.70035 11 9.70742 11C9.71448 11 9.72154 11 9.72859 11C9.73564 11 9.74268 11 9.74972 11C9.75676 11 9.76379 11 9.77081 11C9.77783 11 9.78485 11 9.79186 11C9.79887 11 9.80587 11 9.81287 11C9.81986 11 9.82685 11 9.83383 11C9.84081 11 9.84779 11 9.85476 11C9.86172 11 9.86868 11 9.87564 11C9.88259 11 9.88953 11 9.89647 11C9.90341 11 9.91034 11 9.91727 11C9.92419 11 9.93111 11 9.93802 11C9.94493 11 9.95183 11 9.95872 11C9.96562 11 9.9725 11 9.97938 11C9.98626 11 9.99314 11 10 11V9C9.99314 9 9.98626 9 9.97938 9C9.9725 9 9.96562 9 9.95872 9C9.95183 9 9.94493 9 9.93802 9C9.93111 9 9.92419 9 9.91727 9C9.91034 9 9.90341 9 9.89647 9C9.88953 9 9.88259 9 9.87564 9C9.86868 9 9.86172 9 9.85476 9C9.84779 9 9.84081 9 9.83383 9C9.82685 9 9.81986 9 9.81287 9C9.80587 9 9.79887 9 9.79186 9C9.78485 9 9.77783 9 9.77081 9C9.76379 9 9.75676 9 9.74972 9C9.74268 9 9.73564 9 9.72859 9C9.72154 9 9.71448 9 9.70742 9C9.70035 9 9.69328 9 9.6862 9C9.67912 9 9.67204 9 9.66495 9C9.65786 9 9.65076 9 9.64366 9C9.63655 9 9.62944 9 9.62232 9C9.61521 9 9.60808 9 9.60095 9C9.59382 9 9.58669 9 9.57954 9C9.5724 9 9.56525 9 9.55809 9C9.55094 9 9.54378 9 9.53661 9C9.52944 9 9.52226 9 9.51508 9C9.5079 9 9.50071 9 9.49352 9C9.48633 9 9.47913 9 9.47192 9C9.46472 9 9.4575 9 9.45029 9C9.44307 9 9.43584 9 9.42861 9C9.42138 9 9.41415 9 9.40691 9C9.39966 9 9.39242 9 9.38516 9C9.37791 9 9.37065 9 9.36338 9C9.35612 9 9.34884 9 9.34157 9C9.33429 9 9.32701 9 9.31972 9C9.31243 9 9.30513 9 9.29783 9C9.29053 9 9.28323 9 9.27592 9C9.2686 9 9.26129 9 9.25396 9C9.24664 9 9.23931 9 9.23198 9C9.22465 9 9.21731 9 9.20996 9C9.20262 9 9.19527 9 9.18791 9C9.18055 9 9.17319 9 9.16583 9C9.15846 9 9.15109 9 9.14371 9C9.13633 9 9.12895 9 9.12156 9C9.11418 9 9.10678 9 9.09939 9C9.09199 9 9.08458 9 9.07718 9C9.06977 9 9.06235 9 9.05493 9C9.04752 9 9.04009 9 9.03266 9C9.02523 9 9.0178 9 9.01036 9C9.00292 9 8.99548 9 8.98803 9C8.98058 9 8.97313 9 8.96567 9C8.95821 9 8.95075 9 8.94328 9C8.93581 9 8.92834 9 8.92086 9C8.91339 9 8.9059 9 8.89842 9C8.89093 9 8.88344 9 8.87594 9C8.86844 9 8.86094 9 8.85344 9C8.84593 9 8.83842 9 8.83091 9C8.82339 9 8.81588 9 8.80835 9C8.80083 9 8.7933 9 8.78577 9C8.77823 9 8.7707 9 8.76316 9C8.75562 9 8.74807 9 8.74052 9C8.73297 9 8.72542 9 8.71786 9C8.7103 9 8.70274 9 8.69517 9C8.6876 9 8.68003 9 8.67246 9C8.66488 9 8.6573 9 8.64972 9C8.64214 9 8.63455 9 8.62696 9C8.61937 9 8.61177 9 8.60417 9C8.59657 9 8.58897 9 8.58136 9C8.57376 9 8.56614 9 8.55853 9C8.55091 9 8.5433 9 8.53567 9C8.52805 9 8.52042 9 8.51279 9C8.50516 9 8.49753 9 8.48989 9C8.48225 9 8.47461 9 8.46697 9C8.45932 9 8.45167 9 8.44402 9C8.43637 9 8.42872 9 8.42106 9C8.4134 9 8.40573 9 8.39807 9C8.3904 9 8.38273 9 8.37506 9C8.36739 9 8.35971 9 8.35203 9C8.34435 9 8.33667 9 8.32898 9C8.32129 9 8.3136 9 8.30591 9C8.29822 9 8.29052 9 8.28282 9C8.27512 9 8.26742 9 8.25972 9C8.25201 9 8.2443 9 8.23659 9C8.22888 9 8.22116 9 8.21344 9C8.20573 9 8.19801 9 8.19028 9C8.18256 9 8.17483 9 8.1671 9C8.15937 9 8.15164 9 8.1439 9C8.13617 9 8.12843 9 8.12069 9C8.11295 9 8.1052 9 8.09746 9C8.08971 9 8.08196 9 8.07421 9C8.06645 9 8.0587 9 8.05094 9C8.04318 9 8.03542 9 8.02766 9C8.0199 9 8.01213 9 8.00437 9C7.9966 9 7.98883 9 7.98105 9C7.97328 9 7.96551 9 7.95773 9C7.94995 9 7.94217 9 7.93439 9C7.92661 9 7.91882 9 7.91103 9C7.90325 9 7.89546 9 7.88767 9C7.87988 9 7.87208 9 7.86429 9C7.85649 9 7.84869 9 7.84089 9C7.83309 9 7.82529 9 7.81748 9C7.80968 9 7.80187 9 7.79406 9C7.78625 9 7.77844 9 7.77063 9C7.76282 9 7.755 9 7.74719 9C7.73937 9 7.73155 9 7.72373 9C7.71591 9 7.70809 9 7.70027 9C7.69244 9 7.68462 9 7.67679 9C7.66896 9 7.66113 9 7.6533 9C7.64547 9 7.63764 9 7.62981 9C7.62197 9 7.61414 9 7.6063 9C7.59846 9 7.59062 9 7.58278 9C7.57494 9 7.5671 9 7.55926 9C7.55141 9 7.54357 9 7.53572 9C7.52787 9 7.52003 9 7.51218 9C7.50433 9 7.49648 9 7.48863 9C7.48077 9 7.47292 9 7.46507 9C7.45721 9 7.44936 9 7.4415 9C7.43364 9 7.42579 9 7.41793 9C7.41007 9 7.40221 9 7.39435 9C7.38649 9 7.37862 9 7.37076 9C7.3629 9 7.35503 9 7.34717 9C7.3393 9 7.33144 9 7.32357 9C7.3157 9 7.30783 9 7.29997 9C7.2921 9 7.28423 9 7.27636 9C7.26849 9 7.26061 9 7.25274 9C7.24487 9 7.237 9 7.22912 9C7.22125 9 7.21338 9 7.2055 9C7.19763 9 7.18975 9 7.18188 9C7.174 9 7.16612 9 7.15825 9C7.15037 9 7.14249 9 7.13461 9C7.12674 9 7.11886 9 7.11098 9C7.1031 9 7.09522 9 7.08734 9C7.07946 9 7.07158 9 7.0637 9C7.05582 9 7.04794 9 7.04006 9C7.03218 9 7.0243 9 7.01642 9C7.00853 9 7.00065 9 6.99277 9C6.98489 9 6.97701 9 6.96913 9C6.96124 9 6.95336 9 6.94548 9C6.9376 9 6.92972 9 6.92183 9C6.91395 9 6.90607 9 6.89819 9C6.89031 9 6.88243 9 6.87454 9C6.86666 9 6.85878 9 6.8509 9C6.84302 9 6.83514 9 6.82726 9C6.81938 9 6.8115 9 6.80362 9C6.79574 9 6.78786 9 6.77998 9C6.7721 9 6.76422 9 6.75634 9C6.74846 9 6.74058 9 6.7327 9C6.72483 9 6.71695 9 6.70907 9C6.7012 9 6.69332 9 6.68544 9C6.67757 9 6.66969 9 6.66182 9C6.65395 9 6.64607 9 6.6382 9C6.63033 9 6.62245 9 6.61458 9C6.60671 9 6.59884 9 6.59097 9C6.5831 9 6.57523 9 6.56736 9C6.55949 9 6.55163 9 6.54376 9C6.53589 9 6.52803 9 6.52016 9C6.5123 9 6.50444 9 6.49657 9C6.48871 9 6.48085 9 6.47299 9C6.46513 9 6.45727 9 6.44941 9C6.44155 9 6.4337 9 6.42584 9C6.41798 9 6.41013 9 6.40228 9C6.39442 9 6.38657 9 6.37872 9C6.37087 9 6.36302 9 6.35517 9C6.34732 9 6.33948 9 6.33163 9C6.32379 9 6.31594 9 6.3081 9C6.30026 9 6.29242 9 6.28458 9C6.27674 9 6.2689 9 6.26107 9C6.25323 9 6.24539 9 6.23756 9C6.22973 9 6.2219 9 6.21407 9C6.20624 9 6.19841 9 6.19058 9C6.18276 9 6.17493 9 6.16711 9C6.15929 9 6.15147 9 6.14365 9C6.13583 9 6.12801 9 6.1202 9C6.11238 9 6.10457 9 6.09676 9C6.08895 9 6.08114 9 6.07333 9C6.06552 9 6.05772 9 6.04991 9C6.04211 9 6.03431 9 6.02651 9C6.01871 9 6.01092 9 6.00312 9C5.99533 9 5.98754 9 5.97975 9C5.97196 9 5.96417 9 5.95638 9C5.9486 9 5.94081 9 5.93303 9C5.92525 9 5.91747 9 5.9097 9C5.90192 9 5.89415 9 5.88638 9C5.87861 9 5.87084 9 5.86307 9C5.85531 9 5.84754 9 5.83978 9C5.83202 9 5.82426 9 5.81651 9C5.80875 9 5.801 9 5.79325 9C5.7855 9 5.77775 9 5.77001 9C5.76226 9 5.75452 9 5.74678 9C5.73904 9 5.7313 9 5.72357 9C5.71584 9 5.70811 9 5.70038 9C5.69265 9 5.68493 9 5.6772 9C5.66948 9 5.66176 9 5.65405 9C5.64633 9 5.63862 9 5.63091 9C5.6232 9 5.61549 9 5.60779 9C5.60009 9 5.59239 9 5.58469 9C5.57699 9 5.5693 9 5.56161 9C5.55392 9 5.54623 9 5.53855 9C5.53086 9 5.52318 9 5.5155 9C5.50783 9 5.50015 9 5.49248 9C5.48481 9 5.47714 9 5.46948 9C5.46182 9 5.45416 9 5.4465 9C5.43884 9 5.43119 9 5.42354 9C5.41589 9 5.40824 9 5.4006 9C5.39296 9 5.38532 9 5.37769 9C5.37005 9 5.36242 9 5.35479 9C5.34717 9 5.33954 9 5.33192 9C5.3243 9 5.31669 9 5.30907 9C5.30146 9 5.29385 9 5.28625 9C5.27864 9 5.27104 9 5.26345 9C5.25585 9 5.24826 9 5.24067 9C5.23308 9 5.2255 9 5.21792 9C5.21034 9 5.20276 9 5.19519 9C5.18762 9 5.18005 9 5.17248 9C5.16492 9 5.15736 9 5.14981 9C5.14225 9 5.1347 9 5.12715 9C5.11961 9 5.11206 9 5.10453 9C5.09699 9 5.08945 9 5.08192 9C5.0744 9 5.06687 9 5.05935 9C5.05183 9 5.04431 9 5.0368 9C5.02929 9 5.02178 9 5.01428 9C5.00678 9 4.99928 9 4.99179 9C4.9843 9 4.97681 9 4.96933 9C4.96184 9 4.95436 9 4.94689 9C4.93941 9 4.93195 9 4.92448 9C4.91702 9 4.90956 9 4.9021 9C4.89465 9 4.8872 9 4.87975 9C4.87231 9 4.86487 9 4.85743 9C4.85 9 4.84257 9 4.83514 9C4.82772 9 4.8203 9 4.81288 9C4.80547 9 4.79806 9 4.79065 9C4.78325 9 4.77585 9 4.76845 9C4.76106 9 4.75367 9 4.74628 9C4.7389 9 4.73152 9 4.72415 9C4.71678 9 4.70941 9 4.70204 9C4.69468 9 4.68732 9 4.67997 9C4.67262 9 4.66527 9 4.65793 9C4.65059 9 4.64326 9 4.63593 9C4.6286 9 4.62127 9 4.61395 9C4.60664 9 4.59932 9 4.59201 9C4.58471 9 4.5774 9 4.57011 9C4.56281 9 4.55552 9 4.54824 9C4.54095 9 4.53367 9 4.5264 9C4.51913 9 4.51186 9 4.5046 9C4.49734 9 4.49008 9 4.48283 9C4.47558 9 4.46834 9 4.4611 9C4.45386 9 4.44663 9 4.4394 9C4.43218 9 4.42496 9 4.41775 9C4.41053 9 4.40332 9 4.39612 9C4.38892 9 4.38173 9 4.37454 9C4.36735 9 4.36017 9 4.35299 9C4.34581 9 4.33864 9 4.33148 9C4.32431 9 4.31716 9 4.31 9C4.30285 9 4.29571 9 4.28857 9C4.28143 9 4.2743 9 4.26717 9C4.26005 9 4.25293 9 4.24582 9C4.2387 9 4.2316 9 4.2245 9C4.2174 9 4.21031 9 4.20322 9C4.19613 9 4.18905 9 4.18198 9C4.17491 9 4.16784 9 4.16078 9C4.15372 9 4.14667 9 4.13962 9C4.13258 9 4.12554 9 4.11851 9C4.11147 9 4.10445 9 4.09743 9C4.09041 9 4.0834 9 4.0764 9C4.06939 9 4.06239 9 4.0554 9C4.04841 9 4.04143 9 4.03445 9C4.02748 9 4.02051 9 4.01355 9C4.00658 9 3.99963 9 3.99268 9C3.98573 9 3.97879 9 3.97186 9C3.96493 9 3.958 9 3.95108 9C3.94416 9 3.93725 9 3.93035 9C3.92344 9 3.91655 9 3.90966 9C3.90277 9 3.89589 9 3.88901 9C3.88214 9 3.87527 9 3.86841 9C3.86155 9 3.8547 9 3.84786 9C3.84101 9 3.83418 9 3.82735 9C3.82052 9 3.8137 9 3.80688 9C3.80007 9 3.79326 9 3.78647 9C3.77967 9 3.77288 9 3.7661 9C3.75931 9 3.75254 9 3.74577 9C3.73901 9 3.73225 9 3.7255 9C3.71874 9 3.712 9 3.70527 9C3.69853 9 3.6918 9 3.68508 9C3.67837 9 3.67165 9 3.66495 9C3.65825 9 3.65155 9 3.64487 9C3.63818 9 3.6315 9 3.62483 9C3.61816 9 3.6115 9 3.60484 9C3.59819 9 3.59154 9 3.58491 9C3.57827 9 3.57164 9 3.56502 9C3.5584 9 3.55179 9 3.54518 9C3.53858 9 3.53198 9 3.5254 9C3.51881 9 3.51223 9 3.50566 9C3.49909 9 3.49253 9 3.48598 9C3.47942 9 3.47288 9 3.46635 9C3.45981 9 3.45328 9 3.44676 9C3.44025 9 3.43374 9 3.42724 9C3.42074 9 3.41424 9 3.40776 9C3.40128 9 3.3948 9 3.38834 9C3.38187 9 3.37541 9 3.36897 9C3.36252 9 3.35608 9 3.34965 9C3.34322 9 3.3368 9 3.33039 9C3.32398 9 3.31757 9 3.31118 9C3.30479 9 3.2984 9 3.29203 9C3.28565 9 3.27928 9 3.27293 9C3.26657 9 3.26022 9 3.25388 9C3.24755 9 3.24122 9 3.2349 9C3.22858 9 3.22227 9 3.21596 9C3.20966 9 3.20337 9 3.19709 9C3.19081 9 3.18453 9 3.17827 9C3.17201 9 3.16575 9 3.15951 9C3.15326 9 3.14703 9 3.1408 9C3.13458 9 3.12836 9 3.12215 9C3.11595 9 3.10975 9 3.10356 9C3.09738 9 3.0912 9 3.08503 9C3.07887 9 3.07271 9 3.06656 9C3.06041 9 3.05427 9 3.04815 9C3.04202 9 3.0359 9 3.02979 9C3.02368 9 3.01758 9 3.0115 9C3.00541 9 2.99933 9 2.99326 9C2.98719 9 2.98113 9 2.97508 9C2.96904 9 2.963 9 2.95697 9C2.95094 9 2.94492 9 2.93892 9C2.93291 9 2.92691 9 2.92092 9C2.91494 9 2.90896 9 2.90299 9C2.89703 9 2.89107 9 2.88512 9C2.87918 9 2.87324 9 2.86732 9C2.86139 9 2.85548 9 2.84957 9C2.84367 9 2.83777 9 2.83189 9C2.82601 9 2.82013 9 2.81427 9C2.80841 9 2.80256 9 2.79672 9C2.79088 9 2.78505 9 2.77923 9C2.77341 9 2.7676 9 2.7618 9C2.756 9 2.75022 9 2.74444 9C2.73866 9 2.7329 9 2.72714 9C2.72139 9 2.71564 9 2.70991 9C2.70418 9 2.69845 9 2.69274 9C2.68703 9 2.68133 9 2.67564 9C2.66995 9 2.66428 9 2.65861 9C2.65294 9 2.64729 9 2.64164 9C2.636 9 2.63036 9 2.62474 9C2.61912 9 2.61351 9 2.60791 9C2.60231 9 2.59672 9 2.59114 9C2.58556 9 2.58 9 2.57444 9C2.56889 9 2.56334 9 2.55781 9C2.55228 9 2.54676 9 2.54125 9C2.53574 9 2.53024 9 2.52476 9C2.51927 9 2.5138 9 2.50834 9C2.50287 9 2.49742 9 2.49198 9C2.48654 9 2.48111 9 2.4757 9C2.47028 9 2.46488 9 2.45948 9C2.45409 9 2.44871 9 2.44334 9C2.43797 9 2.43262 9 2.42727 9C2.42192 9 2.41659 9 2.41127 9C2.40595 9 2.40064 9 2.39534 9C2.39004 9 2.38476 9 2.37948 9C2.37421 9 2.36895 9 2.3637 9C2.35845 9 2.35321 9 2.34798 9C2.34276 9 2.33754 9 2.33234 9C2.32714 9 2.32195 9 2.31678 9C2.3116 9 2.30644 9 2.30128 9C2.29613 9 2.29099 9 2.28587 9C2.28074 9 2.27562 9 2.27052 9C2.26542 9 2.26033 9 2.25525 9C2.25017 9 2.24511 9 2.24005 9C2.235 9 2.22996 9 2.22493 9C2.21991 9 2.21489 9 2.20989 9C2.20489 9 2.1999 9 2.19492 9C2.18994 9 2.18498 9 2.18003 9C2.17508 9 2.17014 9 2.16521 9C2.16029 9 2.15537 9 2.15047 9C2.14557 9 2.14068 9 2.13581 9C2.13094 9 2.12607 9 2.12123 9C2.11638 9 2.11154 9 2.10672 9C2.1019 9 2.09709 9 2.09229 9C2.08749 9 2.08271 9 2.07794 9C2.07317 9 2.06841 9 2.06367 9C2.05893 9 2.0542 9 2.04948 9C2.04476 9 2.04006 9 2.03537 9C2.03068 9 2.026 9 2.02133 9C2.01667 9 2.01202 9 2.00738 9C2.00275 9 1.99812 9 1.99351 9C1.9889 9 1.9843 9 1.97972 9C1.97514 9 1.97057 9 1.96601 9C1.96145 9 1.95691 9 1.95238 9C1.94785 9 1.94334 9 1.93884 9C1.93434 9 1.92985 9 1.92537 9C1.9209 9 1.91644 9 1.91199 9C1.90755 9 1.90311 9 1.89869 9C1.89428 9 1.88987 9 1.88548 9C1.88109 9 1.87671 9 1.87235 9C1.86798 9 1.86364 9 1.8593 9C1.85497 9 1.85064 9 1.84634 9C1.84203 9 1.83774 9 1.83346 9C1.82918 9 1.82491 9 1.82066 9C1.81641 9 1.81218 9 1.80796 9C1.80373 9 1.79953 9 1.79533 9C1.79114 9 1.78696 9 1.7828 9C1.77863 9 1.77448 9 1.77034 9C1.76621 9 1.76209 9 1.75798 9C1.75387 9 1.74978 9 1.7457 9C1.74162 9 1.73756 9 1.73351 9C1.72946 9 1.72543 9 1.72141 9C1.71739 9 1.71338 9 1.70939 9C1.7054 9 1.70143 9 1.69747 9C1.69351 9 1.68956 9 1.68563 9C1.6817 9 1.67778 9 1.67388 9C1.66998 9 1.66609 9 1.66222 9C1.65835 9 1.65449 9 1.65065 9C1.64681 9 1.64298 9 1.63917 9C1.63536 9 1.63156 9 1.62778 9C1.624 9 1.62023 9 1.61648 9C1.61273 9 1.60899 9 1.60527 9C1.60155 9 1.59784 9 1.59415 9C1.59046 9 1.58678 9 1.58312 9C1.57946 9 1.57582 9 1.57219 9C1.56856 9 1.56495 9 1.56135 9C1.55775 9 1.55417 9 1.5506 9C1.54703 9 1.54348 9 1.53994 9C1.53641 9 1.53288 9 1.52938 9C1.52587 9 1.52238 9 1.51891 9C1.51543 9 1.51198 9 1.50853 9C1.50509 9 1.50166 9 1.49825 9C1.49484 9 1.49144 9 1.48806 9C1.48468 9 1.48132 9 1.47797 9C1.47462 9 1.47129 9 1.46797 9C1.46466 9 1.46136 9 1.45807 9C1.45479 9 1.45152 9 1.44827 9C1.44501 9 1.44178 9 1.43856 9C1.43534 9 1.43213 9 1.42894 9C1.42576 9 1.42258 9 1.41943 9C1.41627 9 1.41313 9 1.41001 9C1.40689 9 1.40378 9 1.40069 9C1.3976 9 1.39452 9 1.39146 9C1.38841 9 1.38536 9 1.38234 9C1.37931 9 1.3763 9 1.37331 9C1.37032 9 1.36734 9 1.36438 9C1.36143 9 1.35848 9 1.35556 9C1.35263 9 1.34972 9 1.34683 9C1.34393 9 1.34106 9 1.3382 9C1.33534 9 1.3325 9 1.32967 9C1.32684 9 1.32403 9 1.32124 9C1.31845 9 1.31567 9 1.31291 9C1.31015 9 1.30741 9 1.30469 9C1.30196 9 1.29925 9 1.29656 9C1.29387 9 1.2912 9 1.28854 9C1.28588 9 1.28324 9 1.28062 9C1.278 9 1.27539 9 1.2728 9C1.27021 9 1.26764 9 1.26509 9C1.26253 9 1.25999 9 1.25747 9C1.25495 9 1.25245 9 1.24996 9C1.24748 9 1.24501 9 1.24256 9C1.24011 9 1.23768 9 1.23526 9C1.23284 9 1.23045 9 1.22806 9C1.22568 9 1.22332 9 1.22097 9C1.21863 9 1.2163 9 1.21399 9C1.21168 9 1.20938 9 1.20711 9C1.20483 9 1.20257 9 1.20033 9C1.19809 9 1.19587 9 1.19367 9C1.19146 9 1.18927 9 1.1871 9C1.18493 9 1.18278 9 1.18065 9C1.17852 9 1.1764 9 1.1743 9C1.1722 9 1.17012 9 1.16806 9C1.166 9 1.16396 9 1.16193 9C1.1599 9 1.1579 9 1.15591 9C1.15392 9 1.15194 9 1.14999 9C1.14804 9 1.1461 9 1.14419 9C1.14227 9 1.14037 9 1.13849 9C1.13661 9 1.13474 9 1.1329 9C1.13106 9 1.12923 9 1.12742 9C1.12562 9 1.12383 9 1.12206 9C1.12028 9 1.11853 9 1.1168 9C1.11506 9 1.11335 9 1.11165 9C1.10996 9 1.10828 9 1.10662 9C1.10496 9 1.10332 9 1.10169 9C1.10007 9 1.09847 9 1.09688 9C1.0953 9 1.09373 9 1.09218 9C1.09064 9 1.08911 9 1.0876 9C1.08609 9 1.0846 9 1.08312 9C1.08165 9 1.0802 9 1.07876 9C1.07733 9 1.07591 9 1.07452 9C1.07312 9 1.07174 9 1.07038 9C1.06902 9 1.06769 9 1.06636 9C1.06504 9 1.06374 9 1.06246 9C1.06118 9 1.05991 9 1.05867 9C1.05743 9 1.0562 9 1.055 9C1.05379 9 1.05261 9 1.05144 9C1.05027 9 1.04912 9 1.048 9C1.04687 9 1.04576 9 1.04467 9C1.04358 9 1.04251 9 1.04146 9C1.04041 9 1.03938 9 1.03837 9C1.03735 9 1.03636 9 1.03539 9C1.03442 9 1.03346 9 1.03253 9C1.0316 9 1.03068 9 1.02979 9C1.0289 9 1.02802 9 1.02717 9C1.02631 9 1.02548 9 1.02467 9C1.02385 9 1.02306 9 1.02228 9C1.02151 9 1.02075 9 1.02001 9C1.01928 9 1.01856 9 1.01787 9C1.01717 9 1.0165 9 1.01584 9C1.01519 9 1.01455 9 1.01394 9C1.01332 9 1.01273 9 1.01215 9C1.01158 9 1.01102 9 1.01049 9C1.00995 9 1.00944 9 1.00894 9C1.00845 9 1.00798 9 1.00752 9C1.00707 9 1.00663 9 1.00622 9C1.00581 9 1.00542 9 1.00504 9C1.00467 9 1.00432 9 1.00399 9C1.00366 9 1.00335 9 1.00306 9C1.00277 9 1.0025 9 1.00225 9C1.002 9 1.00177 9 1.00156 9C1.00135 9 1.00117 9 1.001 9C1.00083 9 1.00069 9 1.00056 9C1.00044 9 1.00033 9 1.00025 9C1.00017 9 1.0001 9 1.00006 9C1.00002 9 1 9 1 10ZM10 11C10.0069 11 10.0137 11 10.0206 11C10.0275 11 10.0344 11 10.0413 11C10.0482 11 10.0551 11 10.062 11C10.0689 11 10.0758 11 10.0827 11C10.0897 11 10.0966 11 10.1035 11C10.1105 11 10.1174 11 10.1244 11C10.1313 11 10.1383 11 10.1452 11C10.1522 11 10.1592 11 10.1662 11C10.1731 11 10.1801 11 10.1871 11C10.1941 11 10.2011 11 10.2081 11C10.2151 11 10.2222 11 10.2292 11C10.2362 11 10.2432 11 10.2503 11C10.2573 11 10.2644 11 10.2714 11C10.2785 11 10.2855 11 10.2926 11C10.2996 11 10.3067 11 10.3138 11C10.3209 11 10.328 11 10.3351 11C10.3421 11 10.3492 11 10.3563 11C10.3634 11 10.3706 11 10.3777 11C10.3848 11 10.3919 11 10.399 11C10.4062 11 10.4133 11 10.4205 11C10.4276 11 10.4347 11 10.4419 11C10.4491 11 10.4562 11 10.4634 11C10.4706 11 10.4777 11 10.4849 11C10.4921 11 10.4993 11 10.5065 11C10.5137 11 10.5209 11 10.5281 11C10.5353 11 10.5425 11 10.5497 11C10.5569 11 10.5642 11 10.5714 11C10.5786 11 10.5859 11 10.5931 11C10.6003 11 10.6076 11 10.6148 11C10.6221 11 10.6294 11 10.6366 11C10.6439 11 10.6512 11 10.6584 11C10.6657 11 10.673 11 10.6803 11C10.6876 11 10.6949 11 10.7022 11C10.7095 11 10.7168 11 10.7241 11C10.7314 11 10.7387 11 10.746 11C10.7534 11 10.7607 11 10.768 11C10.7754 11 10.7827 11 10.79 11C10.7974 11 10.8047 11 10.8121 11C10.8194 11 10.8268 11 10.8342 11C10.8415 11 10.8489 11 10.8563 11C10.8637 11 10.871 11 10.8784 11C10.8858 11 10.8932 11 10.9006 11C10.908 11 10.9154 11 10.9228 11C10.9302 11 10.9376 11 10.9451 11C10.9525 11 10.9599 11 10.9673 11C10.9748 11 10.9822 11 10.9896 11C10.9971 11 11.0045 11 11.012 11C11.0194 11 11.0269 11 11.0343 11C11.0418 11 11.0493 11 11.0567 11C11.0642 11 11.0717 11 11.0791 11C11.0866 11 11.0941 11 11.1016 11C11.1091 11 11.1166 11 11.1241 11C11.1316 11 11.1391 11 11.1466 11C11.1541 11 11.1616 11 11.1691 11C11.1766 11 11.1841 11 11.1916 11C11.1992 11 11.2067 11 11.2142 11C11.2218 11 11.2293 11 11.2368 11C11.2444 11 11.2519 11 11.2595 11C11.267 11 11.2746 11 11.2821 11C11.2897 11 11.2973 11 11.3048 11C11.3124 11 11.32 11 11.3275 11C11.3351 11 11.3427 11 11.3503 11C11.3579 11 11.3654 11 11.373 11C11.3806 11 11.3882 11 11.3958 11C11.4034 11 11.411 11 11.4186 11C11.4262 11 11.4339 11 11.4415 11C11.4491 11 11.4567 11 11.4643 11C11.4719 11 11.4796 11 11.4872 11C11.4948 11 11.5025 11 11.5101 11C11.5177 11 11.5254 11 11.533 11C11.5407 11 11.5483 11 11.556 11C11.5636 11 11.5713 11 11.5789 11C11.5866 11 11.5943 11 11.6019 11C11.6096 11 11.6173 11 11.6249 11C11.6326 11 11.6403 11 11.648 11C11.6557 11 11.6633 11 11.671 11C11.6787 11 11.6864 11 11.6941 11C11.7018 11 11.7095 11 11.7172 11C11.7249 11 11.7326 11 11.7403 11C11.748 11 11.7557 11 11.7634 11C11.7711 11 11.7788 11 11.7866 11C11.7943 11 11.802 11 11.8097 11C11.8174 11 11.8252 11 11.8329 11C11.8406 11 11.8484 11 11.8561 11C11.8638 11 11.8716 11 11.8793 11C11.8871 11 11.8948 11 11.9025 11C11.9103 11 11.918 11 11.9258 11C11.9335 11 11.9413 11 11.9491 11C11.9568 11 11.9646 11 11.9723 11C11.9801 11 11.9879 11 11.9956 11C12.0034 11 12.0112 11 12.0189 11C12.0267 11 12.0345 11 12.0423 11C12.05 11 12.0578 11 12.0656 11C12.0734 11 12.0812 11 12.089 11C12.0968 11 12.1045 11 12.1123 11C12.1201 11 12.1279 11 12.1357 11C12.1435 11 12.1513 11 12.1591 11C12.1669 11 12.1747 11 12.1825 11C12.1903 11 12.1981 11 12.2059 11C12.2137 11 12.2216 11 12.2294 11C12.2372 11 12.245 11 12.2528 11C12.2606 11 12.2684 11 12.2763 11C12.2841 11 12.2919 11 12.2997 11C12.3076 11 12.3154 11 12.3232 11C12.331 11 12.3389 11 12.3467 11C12.3545 11 12.3624 11 12.3702 11C12.378 11 12.3859 11 12.3937 11C12.4015 11 12.4094 11 12.4172 11C12.4251 11 12.4329 11 12.4407 11C12.4486 11 12.4564 11 12.4643 11C12.4721 11 12.48 11 12.4878 11C12.4957 11 12.5035 11 12.5114 11C12.5192 11 12.5271 11 12.5349 11C12.5428 11 12.5506 11 12.5585 11C12.5664 11 12.5742 11 12.5821 11C12.5899 11 12.5978 11 12.6057 11C12.6135 11 12.6214 11 12.6292 11C12.6371 11 12.645 11 12.6528 11C12.6607 11 12.6686 11 12.6764 11C12.6843 11 12.6922 11 12.7 11C12.7079 11 12.7158 11 12.7236 11C12.7315 11 12.7394 11 12.7473 11C12.7551 11 12.763 11 12.7709 11C12.7787 11 12.7866 11 12.7945 11C12.8024 11 12.8102 11 12.8181 11C12.826 11 12.8339 11 12.8418 11C12.8496 11 12.8575 11 12.8654 11C12.8733 11 12.8811 11 12.889 11C12.8969 11 12.9048 11 12.9127 11C12.9205 11 12.9284 11 12.9363 11C12.9442 11 12.9521 11 12.9599 11C12.9678 11 12.9757 11 12.9836 11C12.9915 11 12.9993 11 13.0072 11C13.0151 11 13.023 11 13.0309 11C13.0388 11 13.0466 11 13.0545 11C13.0624 11 13.0703 11 13.0782 11C13.086 11 13.0939 11 13.1018 11C13.1097 11 13.1176 11 13.1255 11C13.1333 11 13.1412 11 13.1491 11C13.157 11 13.1649 11 13.1727 11C13.1806 11 13.1885 11 13.1964 11C13.2043 11 13.2121 11 13.22 11C13.2279 11 13.2358 11 13.2437 11C13.2515 11 13.2594 11 13.2673 11C13.2752 11 13.2831 11 13.2909 11C13.2988 11 13.3067 11 13.3146 11C13.3224 11 13.3303 11 13.3382 11C13.3461 11 13.3539 11 13.3618 11C13.3697 11 13.3775 11 13.3854 11C13.3933 11 13.4012 11 13.409 11C13.4169 11 13.4248 11 13.4326 11C13.4405 11 13.4484 11 13.4562 11C13.4641 11 13.472 11 13.4798 11C13.4877 11 13.4956 11 13.5034 11C13.5113 11 13.5192 11 13.527 11C13.5349 11 13.5427 11 13.5506 11C13.5584 11 13.5663 11 13.5742 11C13.582 11 13.5899 11 13.5977 11C13.6056 11 13.6134 11 13.6213 11C13.6291 11 13.637 11 13.6448 11C13.6527 11 13.6605 11 13.6684 11C13.6762 11 13.6841 11 13.6919 11C13.6997 11 13.7076 11 13.7154 11C13.7233 11 13.7311 11 13.7389 11C13.7468 11 13.7546 11 13.7624 11C13.7703 11 13.7781 11 13.7859 11C13.7938 11 13.8016 11 13.8094 11C13.8172 11 13.8251 11 13.8329 11C13.8407 11 13.8485 11 13.8564 11C13.8642 11 13.872 11 13.8798 11C13.8876 11 13.8954 11 13.9032 11C13.9111 11 13.9189 11 13.9267 11C13.9345 11 13.9423 11 13.9501 11C13.9579 11 13.9657 11 13.9735 11C13.9813 11 13.9891 11 13.9969 11C14.0047 11 14.0125 11 14.0203 11C14.028 11 14.0358 11 14.0436 11C14.0514 11 14.0592 11 14.067 11C14.0747 11 14.0825 11 14.0903 11C14.0981 11 14.1059 11 14.1136 11C14.1214 11 14.1292 11 14.1369 11C14.1447 11 14.1525 11 14.1602 11C14.168 11 14.1757 11 14.1835 11C14.1912 11 14.199 11 14.2068 11C14.2145 11 14.2222 11 14.23 11C14.2377 11 14.2455 11 14.2532 11C14.261 11 14.2687 11 14.2764 11C14.2842 11 14.2919 11 14.2996 11C14.3073 11 14.3151 11 14.3228 11C14.3305 11 14.3382 11 14.346 11C14.3537 11 14.3614 11 14.3691 11C14.3768 11 14.3845 11 14.3922 11C14.3999 11 14.4076 11 14.4153 11C14.423 11 14.4307 11 14.4384 11C14.4461 11 14.4538 11 14.4615 11C14.4691 11 14.4768 11 14.4845 11C14.4922 11 14.4998 11 14.5075 11C14.5152 11 14.5229 11 14.5305 11C14.5382 11 14.5458 11 14.5535 11C14.5612 11 14.5688 11 14.5765 11C14.5841 11 14.5918 11 14.5994 11C14.607 11 14.6147 11 14.6223 11C14.6299 11 14.6376 11 14.6452 11C14.6528 11 14.6605 11 14.6681 11C14.6757 11 14.6833 11 14.6909 11C14.6985 11 14.7061 11 14.7138 11C14.7214 11 14.729 11 14.7366 11C14.7441 11 14.7517 11 14.7593 11C14.7669 11 14.7745 11 14.7821 11C14.7897 11 14.7972 11 14.8048 11C14.8124 11 14.82 11 14.8275 11C14.8351 11 14.8426 11 14.8502 11C14.8577 11 14.8653 11 14.8728 11C14.8804 11 14.8879 11 14.8955 11C14.903 11 14.9105 11 14.9181 11C14.9256 11 14.9331 11 14.9406 11C14.9482 11 14.9557 11 14.9632 11C14.9707 11 14.9782 11 14.9857 11C14.9932 11 15.0007 11 15.0082 11C15.0157 11 15.0232 11 15.0307 11C15.0382 11 15.0456 11 15.0531 11C15.0606 11 15.0681 11 15.0755 11C15.083 11 15.0904 11 15.0979 11C15.1054 11 15.1128 11 15.1202 11C15.1277 11 15.1351 11 15.1426 11C15.15 11 15.1574 11 15.1649 11C15.1723 11 15.1797 11 15.1871 11C15.1945 11 15.2019 11 15.2093 11C15.2168 11 15.2242 11 15.2315 11C15.2389 11 15.2463 11 15.2537 11C15.2611 11 15.2685 11 15.2759 11C15.2832 11 15.2906 11 15.298 11C15.3053 11 15.3127 11 15.32 11C15.3274 11 15.3347 11 15.3421 11C15.3494 11 15.3567 11 15.3641 11C15.3714 11 15.3787 11 15.386 11C15.3934 11 15.4007 11 15.408 11C15.4153 11 15.4226 11 15.4299 11C15.4372 11 15.4445 11 15.4518 11C15.459 11 15.4663 11 15.4736 11C15.4809 11 15.4881 11 15.4954 11C15.5027 11 15.5099 11 15.5172 11C15.5244 11 15.5317 11 15.5389 11C15.5461 11 15.5534 11 15.5606 11C15.5678 11 15.575 11 15.5823 11C15.5895 11 15.5967 11 15.6039 11C15.6111 11 15.6183 11 15.6255 11C15.6327 11 15.6398 11 15.647 11C15.6542 11 15.6614 11 15.6685 11C15.6757 11 15.6828 11 15.69 11C15.6971 11 15.7043 11 15.7114 11C15.7186 11 15.7257 11 15.7328 11C15.74 11 15.7471 11 15.7542 11C15.7613 11 15.7684 11 15.7755 11C15.7826 11 15.7897 11 15.7968 11C15.8039 11 15.8109 11 15.818 11C15.8251 11 15.8322 11 15.8392 11C15.8463 11 15.8533 11 15.8604 11C15.8674 11 15.8745 11 15.8815 11C15.8885 11 15.8956 11 15.9026 11C15.9096 11 15.9166 11 15.9236 11C15.9306 11 15.9376 11 15.9446 11C15.9516 11 15.9586 11 15.9655 11C15.9725 11 15.9795 11 15.9865 11C15.9934 11 16.0004 11 16.0073 11C16.0143 11 16.0212 11 16.0281 11C16.0351 11 16.042 11 16.0489 11C16.0558 11 16.0627 11 16.0697 11C16.0766 11 16.0835 11 16.0903 11C16.0972 11 16.1041 11 16.111 11C16.1179 11 16.1247 11 16.1316 11C16.1384 11 16.1453 11 16.1521 11C16.159 11 16.1658 11 16.1727 11C16.1795 11 16.1863 11 16.1931 11C16.1999 11 16.2067 11 16.2135 11C16.2203 11 16.2271 11 16.2339 11C16.2407 11 16.2475 11 16.2542 11C16.261 11 16.2678 11 16.2745 11C16.2813 11 16.288 11 16.2947 11C16.3015 11 16.3082 11 16.3149 11C16.3216 11 16.3283 11 16.335 11C16.3418 11 16.3484 11 16.3551 11C16.3618 11 16.3685 11 16.3752 11C16.3818 11 16.3885 11 16.3952 11C16.4018 11 16.4085 11 16.4151 11C16.4217 11 16.4284 11 16.435 11C16.4416 11 16.4482 11 16.4548 11C16.4614 11 16.468 11 16.4746 11C16.4812 11 16.4878 11 16.4943 11C16.5009 11 16.5075 11 16.514 11C16.5206 11 16.5271 11 16.5337 11C16.5402 11 16.5467 11 16.5532 11C16.5598 11 16.5663 11 16.5728 11C16.5793 11 16.5858 11 16.5922 11C16.5987 11 16.6052 11 16.6117 11C16.6181 11 16.6246 11 16.631 11C16.6375 11 16.6439 11 16.6503 11C16.6568 11 16.6632 11 16.6696 11C16.676 11 16.6824 11 16.6888 11C16.6952 11 16.7016 11 16.708 11C16.7143 11 16.7207 11 16.7271 11C16.7334 11 16.7398 11 16.7461 11C16.7525 11 16.7588 11 16.7651 11C16.7714 11 16.7777 11 16.784 11C16.7903 11 16.7966 11 16.8029 11C16.8092 11 16.8155 11 16.8217 11C16.828 11 16.8342 11 16.8405 11C16.8467 11 16.853 11 16.8592 11C16.8654 11 16.8716 11 16.8778 11C16.8841 11 16.8902 11 16.8964 11C16.9026 11 16.9088 11 16.915 11C16.9211 11 16.9273 11 16.9334 11C16.9396 11 16.9457 11 16.9519 11C16.958 11 16.9641 11 16.9702 11C16.9763 11 16.9824 11 16.9885 11C16.9946 11 17.0007 11 17.0067 11C17.0128 11 17.0189 11 17.0249 11C17.031 11 17.037 11 17.043 11C17.0491 11 17.0551 11 17.0611 11C17.0671 11 17.0731 11 17.0791 11C17.0851 11 17.091 11 17.097 11C17.103 11 17.1089 11 17.1149 11C17.1208 11 17.1268 11 17.1327 11C17.1386 11 17.1445 11 17.1504 11C17.1563 11 17.1622 11 17.1681 11C17.174 11 17.1799 11 17.1857 11C17.1916 11 17.1974 11 17.2033 11C17.2091 11 17.215 11 17.2208 11C17.2266 11 17.2324 11 17.2382 11C17.244 11 17.2498 11 17.2556 11C17.2613 11 17.2671 11 17.2729 11C17.2786 11 17.2844 11 17.2901 11C17.2958 11 17.3015 11 17.3073 11C17.313 11 17.3187 11 17.3244 11C17.33 11 17.3357 11 17.3414 11C17.3471 11 17.3527 11 17.3584 11C17.364 11 17.3696 11 17.3753 11C17.3809 11 17.3865 11 17.3921 11C17.3977 11 17.4033 11 17.4089 11C17.4144 11 17.42 11 17.4256 11C17.4311 11 17.4367 11 17.4422 11C17.4477 11 17.4532 11 17.4587 11C17.4643 11 17.4698 11 17.4752 11C17.4807 11 17.4862 11 17.4917 11C17.4971 11 17.5026 11 17.508 11C17.5135 11 17.5189 11 17.5243 11C17.5297 11 17.5351 11 17.5405 11C17.5459 11 17.5513 11 17.5567 11C17.562 11 17.5674 11 17.5727 11C17.5781 11 17.5834 11 17.5887 11C17.5941 11 17.5994 11 17.6047 11C17.61 11 17.6152 11 17.6205 11C17.6258 11 17.6311 11 17.6363 11C17.6416 11 17.6468 11 17.652 11C17.6572 11 17.6625 11 17.6677 11C17.6729 11 17.678 11 17.6832 11C17.6884 11 17.6936 11 17.6987 11C17.7039 11 17.709 11 17.7141 11C17.7193 11 17.7244 11 17.7295 11C17.7346 11 17.7397 11 17.7448 11C17.7498 11 17.7549 11 17.7599 11C17.765 11 17.77 11 17.7751 11C17.7801 11 17.7851 11 17.7901 11C17.7951 11 17.8001 11 17.8051 11C17.8101 11 17.815 11 17.82 11C17.8249 11 17.8299 11 17.8348 11C17.8397 11 17.8446 11 17.8495 11C17.8544 11 17.8593 11 17.8642 11C17.8691 11 17.8739 11 17.8788 11C17.8836 11 17.8885 11 17.8933 11C17.8981 11 17.9029 11 17.9077 11C17.9125 11 17.9173 11 17.9221 11C17.9268 11 17.9316 11 17.9363 11C17.9411 11 17.9458 11 17.9505 11C17.9552 11 17.9599 11 17.9646 11C17.9693 11 17.974 11 17.9787 11C17.9833 11 17.988 11 17.9926 11C17.9973 11 18.0019 11 18.0065 11C18.0111 11 18.0157 11 18.0203 11C18.0249 11 18.0294 11 18.034 11C18.0385 11 18.0431 11 18.0476 11C18.0521 11 18.0567 11 18.0612 11C18.0657 11 18.0702 11 18.0746 11C18.0791 11 18.0836 11 18.088 11C18.0925 11 18.0969 11 18.1013 11C18.1057 11 18.1101 11 18.1145 11C18.1189 11 18.1233 11 18.1277 11C18.132 11 18.1364 11 18.1407 11C18.145 11 18.1494 11 18.1537 11C18.158 11 18.1623 11 18.1665 11C18.1708 11 18.1751 11 18.1793 11C18.1836 11 18.1878 11 18.192 11C18.1963 11 18.2005 11 18.2047 11C18.2089 11 18.213 11 18.2172 11C18.2214 11 18.2255 11 18.2297 11C18.2338 11 18.2379 11 18.242 11C18.2461 11 18.2502 11 18.2543 11C18.2584 11 18.2624 11 18.2665 11C18.2705 11 18.2746 11 18.2786 11C18.2826 11 18.2866 11 18.2906 11C18.2946 11 18.2986 11 18.3025 11C18.3065 11 18.3104 11 18.3144 11C18.3183 11 18.3222 11 18.3261 11C18.33 11 18.3339 11 18.3378 11C18.3417 11 18.3455 11 18.3494 11C18.3532 11 18.357 11 18.3608 11C18.3646 11 18.3684 11 18.3722 11C18.376 11 18.3798 11 18.3835 11C18.3873 11 18.391 11 18.3947 11C18.3985 11 18.4022 11 18.4058 11C18.4095 11 18.4132 11 18.4169 11C18.4205 11 18.4242 11 18.4278 11C18.4314 11 18.4351 11 18.4387 11C18.4423 11 18.4458 11 18.4494 11C18.453 11 18.4565 11 18.4601 11C18.4636 11 18.4671 11 18.4706 11C18.4741 11 18.4776 11 18.4811 11C18.4846 11 18.488 11 18.4915 11C18.4949 11 18.4983 11 18.5017 11C18.5052 11 18.5086 11 18.5119 11C18.5153 11 18.5187 11 18.522 11C18.5254 11 18.5287 11 18.532 11C18.5353 11 18.5386 11 18.5419 11C18.5452 11 18.5485 11 18.5517 11C18.555 11 18.5582 11 18.5614 11C18.5647 11 18.5679 11 18.5711 11C18.5742 11 18.5774 11 18.5806 11C18.5837 11 18.5869 11 18.59 11C18.5931 11 18.5962 11 18.5993 11C18.6024 11 18.6055 11 18.6085 11C18.6116 11 18.6146 11 18.6177 11C18.6207 11 18.6237 11 18.6267 11C18.6297 11 18.6327 11 18.6356 11C18.6386 11 18.6415 11 18.6444 11C18.6474 11 18.6503 11 18.6532 11C18.6561 11 18.6589 11 18.6618 11C18.6647 11 18.6675 11 18.6703 11C18.6732 11 18.676 11 18.6788 11C18.6816 11 18.6843 11 18.6871 11C18.6898 11 18.6926 11 18.6953 11C18.698 11 18.7007 11 18.7034 11C18.7061 11 18.7088 11 18.7115 11C18.7141 11 18.7168 11 18.7194 11C18.722 11 18.7246 11 18.7272 11C18.7298 11 18.7324 11 18.7349 11C18.7375 11 18.74 11 18.7425 11C18.745 11 18.7475 11 18.75 11C18.7525 11 18.755 11 18.7574 11C18.7599 11 18.7623 11 18.7647 11C18.7672 11 18.7696 11 18.7719 11C18.7743 11 18.7767 11 18.779 11C18.7814 11 18.7837 11 18.786 11C18.7883 11 18.7906 11 18.7929 11C18.7952 11 18.7974 11 18.7997 11C18.8019 11 18.8041 11 18.8063 11C18.8085 11 18.8107 11 18.8129 11C18.8151 11 18.8172 11 18.8194 11C18.8215 11 18.8236 11 18.8257 11C18.8278 11 18.8299 11 18.8319 11C18.834 11 18.836 11 18.8381 11C18.8401 11 18.8421 11 18.8441 11C18.8461 11 18.8481 11 18.85 11C18.852 11 18.8539 11 18.8558 11C18.8577 11 18.8596 11 18.8615 11C18.8634 11 18.8653 11 18.8671 11C18.8689 11 18.8708 11 18.8726 11C18.8744 11 18.8762 11 18.8779 11C18.8797 11 18.8815 11 18.8832 11C18.8849 11 18.8867 11 18.8883 11C18.89 11 18.8917 11 18.8934 11C18.895 11 18.8967 11 18.8983 11C18.8999 11 18.9015 11 18.9031 11C18.9047 11 18.9063 11 18.9078 11C18.9094 11 18.9109 11 18.9124 11C18.9139 11 18.9154 11 18.9169 11C18.9183 11 18.9198 11 18.9212 11C18.9227 11 18.9241 11 18.9255 11C18.9269 11 18.9283 11 18.9296 11C18.931 11 18.9323 11 18.9336 11C18.935 11 18.9363 11 18.9375 11C18.9388 11 18.9401 11 18.9413 11C18.9426 11 18.9438 11 18.945 11C18.9462 11 18.9474 11 18.9486 11C18.9497 11 18.9509 11 18.952 11C18.9531 11 18.9542 11 18.9553 11C18.9564 11 18.9575 11 18.9585 11C18.9596 11 18.9606 11 18.9616 11C18.9626 11 18.9636 11 18.9646 11C18.9656 11 18.9665 11 18.9675 11C18.9684 11 18.9693 11 18.9702 11C18.9711 11 18.972 11 18.9728 11C18.9737 11 18.9745 11 18.9753 11C18.9761 11 18.9769 11 18.9777 11C18.9785 11 18.9792 11 18.98 11C18.9807 11 18.9814 11 18.9821 11C18.9828 11 18.9835 11 18.9842 11C18.9848 11 18.9854 11 18.9861 11C18.9867 11 18.9873 11 18.9878 11C18.9884 11 18.989 11 18.9895 11C18.99 11 18.9906 11 18.9911 11C18.9916 11 18.992 11 18.9925 11C18.9929 11 18.9934 11 18.9938 11C18.9942 11 18.9946 11 18.995 11C18.9953 11 18.9957 11 18.996 11C18.9963 11 18.9967 11 18.9969 11C18.9972 11 18.9975 11 18.9978 11C18.998 11 18.9982 11 18.9984 11C18.9986 11 18.9988 11 18.999 11C18.9992 11 18.9993 11 18.9994 11C18.9996 11 18.9997 11 18.9998 11C18.9998 11 18.9999 11 18.9999 11C19 11 19 11 19 10C19 9 19 9 18.9999 9C18.9999 9 18.9998 9 18.9998 9C18.9997 9 18.9996 9 18.9994 9C18.9993 9 18.9992 9 18.999 9C18.9988 9 18.9986 9 18.9984 9C18.9982 9 18.998 9 18.9978 9C18.9975 9 18.9972 9 18.9969 9C18.9967 9 18.9963 9 18.996 9C18.9957 9 18.9953 9 18.995 9C18.9946 9 18.9942 9 18.9938 9C18.9934 9 18.9929 9 18.9925 9C18.992 9 18.9916 9 18.9911 9C18.9906 9 18.99 9 18.9895 9C18.989 9 18.9884 9 18.9878 9C18.9873 9 18.9867 9 18.9861 9C18.9854 9 18.9848 9 18.9842 9C18.9835 9 18.9828 9 18.9821 9C18.9814 9 18.9807 9 18.98 9C18.9792 9 18.9785 9 18.9777 9C18.9769 9 18.9761 9 18.9753 9C18.9745 9 18.9737 9 18.9728 9C18.972 9 18.9711 9 18.9702 9C18.9693 9 18.9684 9 18.9675 9C18.9665 9 18.9656 9 18.9646 9C18.9636 9 18.9626 9 18.9616 9C18.9606 9 18.9596 9 18.9585 9C18.9575 9 18.9564 9 18.9553 9C18.9542 9 18.9531 9 18.952 9C18.9509 9 18.9497 9 18.9486 9C18.9474 9 18.9462 9 18.945 9C18.9438 9 18.9426 9 18.9413 9C18.9401 9 18.9388 9 18.9375 9C18.9363 9 18.935 9 18.9336 9C18.9323 9 18.931 9 18.9296 9C18.9283 9 18.9269 9 18.9255 9C18.9241 9 18.9227 9 18.9212 9C18.9198 9 18.9183 9 18.9169 9C18.9154 9 18.9139 9 18.9124 9C18.9109 9 18.9094 9 18.9078 9C18.9063 9 18.9047 9 18.9031 9C18.9015 9 18.8999 9 18.8983 9C18.8967 9 18.895 9 18.8934 9C18.8917 9 18.89 9 18.8883 9C18.8867 9 18.8849 9 18.8832 9C18.8815 9 18.8797 9 18.8779 9C18.8762 9 18.8744 9 18.8726 9C18.8708 9 18.8689 9 18.8671 9C18.8653 9 18.8634 9 18.8615 9C18.8596 9 18.8577 9 18.8558 9C18.8539 9 18.852 9 18.85 9C18.8481 9 18.8461 9 18.8441 9C18.8421 9 18.8401 9 18.8381 9C18.836 9 18.834 9 18.8319 9C18.8299 9 18.8278 9 18.8257 9C18.8236 9 18.8215 9 18.8194 9C18.8172 9 18.8151 9 18.8129 9C18.8107 9 18.8085 9 18.8063 9C18.8041 9 18.8019 9 18.7997 9C18.7974 9 18.7952 9 18.7929 9C18.7906 9 18.7883 9 18.786 9C18.7837 9 18.7814 9 18.779 9C18.7767 9 18.7743 9 18.7719 9C18.7696 9 18.7672 9 18.7647 9C18.7623 9 18.7599 9 18.7574 9C18.755 9 18.7525 9 18.75 9C18.7475 9 18.745 9 18.7425 9C18.74 9 18.7375 9 18.7349 9C18.7324 9 18.7298 9 18.7272 9C18.7246 9 18.722 9 18.7194 9C18.7168 9 18.7141 9 18.7115 9C18.7088 9 18.7061 9 18.7034 9C18.7007 9 18.698 9 18.6953 9C18.6926 9 18.6898 9 18.6871 9C18.6843 9 18.6816 9 18.6788 9C18.676 9 18.6732 9 18.6703 9C18.6675 9 18.6647 9 18.6618 9C18.6589 9 18.6561 9 18.6532 9C18.6503 9 18.6474 9 18.6444 9C18.6415 9 18.6386 9 18.6356 9C18.6327 9 18.6297 9 18.6267 9C18.6237 9 18.6207 9 18.6177 9C18.6146 9 18.6116 9 18.6085 9C18.6055 9 18.6024 9 18.5993 9C18.5962 9 18.5931 9 18.59 9C18.5869 9 18.5837 9 18.5806 9C18.5774 9 18.5742 9 18.5711 9C18.5679 9 18.5647 9 18.5614 9C18.5582 9 18.555 9 18.5517 9C18.5485 9 18.5452 9 18.5419 9C18.5386 9 18.5353 9 18.532 9C18.5287 9 18.5254 9 18.522 9C18.5187 9 18.5153 9 18.5119 9C18.5086 9 18.5052 9 18.5017 9C18.4983 9 18.4949 9 18.4915 9C18.488 9 18.4846 9 18.4811 9C18.4776 9 18.4741 9 18.4706 9C18.4671 9 18.4636 9 18.4601 9C18.4565 9 18.453 9 18.4494 9C18.4458 9 18.4423 9 18.4387 9C18.4351 9 18.4314 9 18.4278 9C18.4242 9 18.4205 9 18.4169 9C18.4132 9 18.4095 9 18.4058 9C18.4022 9 18.3985 9 18.3947 9C18.391 9 18.3873 9 18.3835 9C18.3798 9 18.376 9 18.3722 9C18.3684 9 18.3646 9 18.3608 9C18.357 9 18.3532 9 18.3494 9C18.3455 9 18.3417 9 18.3378 9C18.3339 9 18.33 9 18.3261 9C18.3222 9 18.3183 9 18.3144 9C18.3104 9 18.3065 9 18.3025 9C18.2986 9 18.2946 9 18.2906 9C18.2866 9 18.2826 9 18.2786 9C18.2746 9 18.2705 9 18.2665 9C18.2624 9 18.2584 9 18.2543 9C18.2502 9 18.2461 9 18.242 9C18.2379 9 18.2338 9 18.2297 9C18.2255 9 18.2214 9 18.2172 9C18.213 9 18.2089 9 18.2047 9C18.2005 9 18.1963 9 18.192 9C18.1878 9 18.1836 9 18.1793 9C18.1751 9 18.1708 9 18.1665 9C18.1623 9 18.158 9 18.1537 9C18.1494 9 18.145 9 18.1407 9C18.1364 9 18.132 9 18.1277 9C18.1233 9 18.1189 9 18.1145 9C18.1101 9 18.1057 9 18.1013 9C18.0969 9 18.0925 9 18.088 9C18.0836 9 18.0791 9 18.0746 9C18.0702 9 18.0657 9 18.0612 9C18.0567 9 18.0521 9 18.0476 9C18.0431 9 18.0385 9 18.034 9C18.0294 9 18.0249 9 18.0203 9C18.0157 9 18.0111 9 18.0065 9C18.0019 9 17.9973 9 17.9926 9C17.988 9 17.9833 9 17.9787 9C17.974 9 17.9693 9 17.9646 9C17.9599 9 17.9552 9 17.9505 9C17.9458 9 17.9411 9 17.9363 9C17.9316 9 17.9268 9 17.9221 9C17.9173 9 17.9125 9 17.9077 9C17.9029 9 17.8981 9 17.8933 9C17.8885 9 17.8836 9 17.8788 9C17.8739 9 17.8691 9 17.8642 9C17.8593 9 17.8544 9 17.8495 9C17.8446 9 17.8397 9 17.8348 9C17.8299 9 17.8249 9 17.82 9C17.815 9 17.8101 9 17.8051 9C17.8001 9 17.7951 9 17.7901 9C17.7851 9 17.7801 9 17.7751 9C17.77 9 17.765 9 17.7599 9C17.7549 9 17.7498 9 17.7448 9C17.7397 9 17.7346 9 17.7295 9C17.7244 9 17.7193 9 17.7141 9C17.709 9 17.7039 9 17.6987 9C17.6936 9 17.6884 9 17.6832 9C17.678 9 17.6729 9 17.6677 9C17.6625 9 17.6572 9 17.652 9C17.6468 9 17.6416 9 17.6363 9C17.6311 9 17.6258 9 17.6205 9C17.6152 9 17.61 9 17.6047 9C17.5994 9 17.5941 9 17.5887 9C17.5834 9 17.5781 9 17.5727 9C17.5674 9 17.562 9 17.5567 9C17.5513 9 17.5459 9 17.5405 9C17.5351 9 17.5297 9 17.5243 9C17.5189 9 17.5135 9 17.508 9C17.5026 9 17.4971 9 17.4917 9C17.4862 9 17.4807 9 17.4752 9C17.4698 9 17.4643 9 17.4587 9C17.4532 9 17.4477 9 17.4422 9C17.4367 9 17.4311 9 17.4256 9C17.42 9 17.4144 9 17.4089 9C17.4033 9 17.3977 9 17.3921 9C17.3865 9 17.3809 9 17.3753 9C17.3696 9 17.364 9 17.3584 9C17.3527 9 17.3471 9 17.3414 9C17.3357 9 17.33 9 17.3244 9C17.3187 9 17.313 9 17.3073 9C17.3015 9 17.2958 9 17.2901 9C17.2844 9 17.2786 9 17.2729 9C17.2671 9 17.2613 9 17.2556 9C17.2498 9 17.244 9 17.2382 9C17.2324 9 17.2266 9 17.2208 9C17.215 9 17.2091 9 17.2033 9C17.1974 9 17.1916 9 17.1857 9C17.1799 9 17.174 9 17.1681 9C17.1622 9 17.1563 9 17.1504 9C17.1445 9 17.1386 9 17.1327 9C17.1268 9 17.1208 9 17.1149 9C17.1089 9 17.103 9 17.097 9C17.091 9 17.0851 9 17.0791 9C17.0731 9 17.0671 9 17.0611 9C17.0551 9 17.0491 9 17.043 9C17.037 9 17.031 9 17.0249 9C17.0189 9 17.0128 9 17.0067 9C17.0007 9 16.9946 9 16.9885 9C16.9824 9 16.9763 9 16.9702 9C16.9641 9 16.958 9 16.9519 9C16.9457 9 16.9396 9 16.9334 9C16.9273 9 16.9211 9 16.915 9C16.9088 9 16.9026 9 16.8964 9C16.8902 9 16.8841 9 16.8778 9C16.8716 9 16.8654 9 16.8592 9C16.853 9 16.8467 9 16.8405 9C16.8342 9 16.828 9 16.8217 9C16.8155 9 16.8092 9 16.8029 9C16.7966 9 16.7903 9 16.784 9C16.7777 9 16.7714 9 16.7651 9C16.7588 9 16.7525 9 16.7461 9C16.7398 9 16.7334 9 16.7271 9C16.7207 9 16.7143 9 16.708 9C16.7016 9 16.6952 9 16.6888 9C16.6824 9 16.676 9 16.6696 9C16.6632 9 16.6568 9 16.6503 9C16.6439 9 16.6375 9 16.631 9C16.6246 9 16.6181 9 16.6117 9C16.6052 9 16.5987 9 16.5922 9C16.5858 9 16.5793 9 16.5728 9C16.5663 9 16.5598 9 16.5532 9C16.5467 9 16.5402 9 16.5337 9C16.5271 9 16.5206 9 16.514 9C16.5075 9 16.5009 9 16.4943 9C16.4878 9 16.4812 9 16.4746 9C16.468 9 16.4614 9 16.4548 9C16.4482 9 16.4416 9 16.435 9C16.4284 9 16.4217 9 16.4151 9C16.4085 9 16.4018 9 16.3952 9C16.3885 9 16.3818 9 16.3752 9C16.3685 9 16.3618 9 16.3551 9C16.3484 9 16.3418 9 16.335 9C16.3283 9 16.3216 9 16.3149 9C16.3082 9 16.3015 9 16.2947 9C16.288 9 16.2813 9 16.2745 9C16.2678 9 16.261 9 16.2542 9C16.2475 9 16.2407 9 16.2339 9C16.2271 9 16.2203 9 16.2135 9C16.2067 9 16.1999 9 16.1931 9C16.1863 9 16.1795 9 16.1727 9C16.1658 9 16.159 9 16.1521 9C16.1453 9 16.1384 9 16.1316 9C16.1247 9 16.1179 9 16.111 9C16.1041 9 16.0972 9 16.0903 9C16.0835 9 16.0766 9 16.0697 9C16.0627 9 16.0558 9 16.0489 9C16.042 9 16.0351 9 16.0281 9C16.0212 9 16.0143 9 16.0073 9C16.0004 9 15.9934 9 15.9865 9C15.9795 9 15.9725 9 15.9655 9C15.9586 9 15.9516 9 15.9446 9C15.9376 9 15.9306 9 15.9236 9C15.9166 9 15.9096 9 15.9026 9C15.8956 9 15.8885 9 15.8815 9C15.8745 9 15.8674 9 15.8604 9C15.8533 9 15.8463 9 15.8392 9C15.8322 9 15.8251 9 15.818 9C15.8109 9 15.8039 9 15.7968 9C15.7897 9 15.7826 9 15.7755 9C15.7684 9 15.7613 9 15.7542 9C15.7471 9 15.74 9 15.7328 9C15.7257 9 15.7186 9 15.7114 9C15.7043 9 15.6971 9 15.69 9C15.6828 9 15.6757 9 15.6685 9C15.6614 9 15.6542 9 15.647 9C15.6398 9 15.6327 9 15.6255 9C15.6183 9 15.6111 9 15.6039 9C15.5967 9 15.5895 9 15.5823 9C15.575 9 15.5678 9 15.5606 9C15.5534 9 15.5461 9 15.5389 9C15.5317 9 15.5244 9 15.5172 9C15.5099 9 15.5027 9 15.4954 9C15.4881 9 15.4809 9 15.4736 9C15.4663 9 15.459 9 15.4518 9C15.4445 9 15.4372 9 15.4299 9C15.4226 9 15.4153 9 15.408 9C15.4007 9 15.3934 9 15.386 9C15.3787 9 15.3714 9 15.3641 9C15.3567 9 15.3494 9 15.3421 9C15.3347 9 15.3274 9 15.32 9C15.3127 9 15.3053 9 15.298 9C15.2906 9 15.2832 9 15.2759 9C15.2685 9 15.2611 9 15.2537 9C15.2463 9 15.2389 9 15.2315 9C15.2242 9 15.2168 9 15.2093 9C15.2019 9 15.1945 9 15.1871 9C15.1797 9 15.1723 9 15.1649 9C15.1574 9 15.15 9 15.1426 9C15.1351 9 15.1277 9 15.1202 9C15.1128 9 15.1054 9 15.0979 9C15.0904 9 15.083 9 15.0755 9C15.0681 9 15.0606 9 15.0531 9C15.0456 9 15.0382 9 15.0307 9C15.0232 9 15.0157 9 15.0082 9C15.0007 9 14.9932 9 14.9857 9C14.9782 9 14.9707 9 14.9632 9C14.9557 9 14.9482 9 14.9406 9C14.9331 9 14.9256 9 14.9181 9C14.9105 9 14.903 9 14.8955 9C14.8879 9 14.8804 9 14.8728 9C14.8653 9 14.8577 9 14.8502 9C14.8426 9 14.8351 9 14.8275 9C14.82 9 14.8124 9 14.8048 9C14.7972 9 14.7897 9 14.7821 9C14.7745 9 14.7669 9 14.7593 9C14.7517 9 14.7441 9 14.7366 9C14.729 9 14.7214 9 14.7138 9C14.7061 9 14.6985 9 14.6909 9C14.6833 9 14.6757 9 14.6681 9C14.6605 9 14.6528 9 14.6452 9C14.6376 9 14.6299 9 14.6223 9C14.6147 9 14.607 9 14.5994 9C14.5918 9 14.5841 9 14.5765 9C14.5688 9 14.5612 9 14.5535 9C14.5458 9 14.5382 9 14.5305 9C14.5229 9 14.5152 9 14.5075 9C14.4998 9 14.4922 9 14.4845 9C14.4768 9 14.4691 9 14.4615 9C14.4538 9 14.4461 9 14.4384 9C14.4307 9 14.423 9 14.4153 9C14.4076 9 14.3999 9 14.3922 9C14.3845 9 14.3768 9 14.3691 9C14.3614 9 14.3537 9 14.346 9C14.3382 9 14.3305 9 14.3228 9C14.3151 9 14.3073 9 14.2996 9C14.2919 9 14.2842 9 14.2764 9C14.2687 9 14.261 9 14.2532 9C14.2455 9 14.2377 9 14.23 9C14.2222 9 14.2145 9 14.2068 9C14.199 9 14.1912 9 14.1835 9C14.1757 9 14.168 9 14.1602 9C14.1525 9 14.1447 9 14.1369 9C14.1292 9 14.1214 9 14.1136 9C14.1059 9 14.0981 9 14.0903 9C14.0825 9 14.0747 9 14.067 9C14.0592 9 14.0514 9 14.0436 9C14.0358 9 14.028 9 14.0203 9C14.0125 9 14.0047 9 13.9969 9C13.9891 9 13.9813 9 13.9735 9C13.9657 9 13.9579 9 13.9501 9C13.9423 9 13.9345 9 13.9267 9C13.9189 9 13.9111 9 13.9032 9C13.8954 9 13.8876 9 13.8798 9C13.872 9 13.8642 9 13.8564 9C13.8485 9 13.8407 9 13.8329 9C13.8251 9 13.8172 9 13.8094 9C13.8016 9 13.7938 9 13.7859 9C13.7781 9 13.7703 9 13.7624 9C13.7546 9 13.7468 9 13.7389 9C13.7311 9 13.7233 9 13.7154 9C13.7076 9 13.6997 9 13.6919 9C13.6841 9 13.6762 9 13.6684 9C13.6605 9 13.6527 9 13.6448 9C13.637 9 13.6291 9 13.6213 9C13.6134 9 13.6056 9 13.5977 9C13.5899 9 13.582 9 13.5742 9C13.5663 9 13.5584 9 13.5506 9C13.5427 9 13.5349 9 13.527 9C13.5192 9 13.5113 9 13.5034 9C13.4956 9 13.4877 9 13.4798 9C13.472 9 13.4641 9 13.4562 9C13.4484 9 13.4405 9 13.4326 9C13.4248 9 13.4169 9 13.409 9C13.4012 9 13.3933 9 13.3854 9C13.3775 9 13.3697 9 13.3618 9C13.3539 9 13.3461 9 13.3382 9C13.3303 9 13.3224 9 13.3146 9C13.3067 9 13.2988 9 13.2909 9C13.2831 9 13.2752 9 13.2673 9C13.2594 9 13.2515 9 13.2437 9C13.2358 9 13.2279 9 13.22 9C13.2121 9 13.2043 9 13.1964 9C13.1885 9 13.1806 9 13.1727 9C13.1649 9 13.157 9 13.1491 9C13.1412 9 13.1333 9 13.1255 9C13.1176 9 13.1097 9 13.1018 9C13.0939 9 13.086 9 13.0782 9C13.0703 9 13.0624 9 13.0545 9C13.0466 9 13.0388 9 13.0309 9C13.023 9 13.0151 9 13.0072 9C12.9993 9 12.9915 9 12.9836 9C12.9757 9 12.9678 9 12.9599 9C12.9521 9 12.9442 9 12.9363 9C12.9284 9 12.9205 9 12.9127 9C12.9048 9 12.8969 9 12.889 9C12.8811 9 12.8733 9 12.8654 9C12.8575 9 12.8496 9 12.8418 9C12.8339 9 12.826 9 12.8181 9C12.8102 9 12.8024 9 12.7945 9C12.7866 9 12.7787 9 12.7709 9C12.763 9 12.7551 9 12.7473 9C12.7394 9 12.7315 9 12.7236 9C12.7158 9 12.7079 9 12.7 9C12.6922 9 12.6843 9 12.6764 9C12.6686 9 12.6607 9 12.6528 9C12.645 9 12.6371 9 12.6292 9C12.6214 9 12.6135 9 12.6057 9C12.5978 9 12.5899 9 12.5821 9C12.5742 9 12.5664 9 12.5585 9C12.5506 9 12.5428 9 12.5349 9C12.5271 9 12.5192 9 12.5114 9C12.5035 9 12.4957 9 12.4878 9C12.48 9 12.4721 9 12.4643 9C12.4564 9 12.4486 9 12.4407 9C12.4329 9 12.4251 9 12.4172 9C12.4094 9 12.4015 9 12.3937 9C12.3859 9 12.378 9 12.3702 9C12.3624 9 12.3545 9 12.3467 9C12.3389 9 12.331 9 12.3232 9C12.3154 9 12.3076 9 12.2997 9C12.2919 9 12.2841 9 12.2763 9C12.2684 9 12.2606 9 12.2528 9C12.245 9 12.2372 9 12.2294 9C12.2216 9 12.2137 9 12.2059 9C12.1981 9 12.1903 9 12.1825 9C12.1747 9 12.1669 9 12.1591 9C12.1513 9 12.1435 9 12.1357 9C12.1279 9 12.1201 9 12.1123 9C12.1045 9 12.0968 9 12.089 9C12.0812 9 12.0734 9 12.0656 9C12.0578 9 12.05 9 12.0423 9C12.0345 9 12.0267 9 12.0189 9C12.0112 9 12.0034 9 11.9956 9C11.9879 9 11.9801 9 11.9723 9C11.9646 9 11.9568 9 11.9491 9C11.9413 9 11.9335 9 11.9258 9C11.918 9 11.9103 9 11.9025 9C11.8948 9 11.8871 9 11.8793 9C11.8716 9 11.8638 9 11.8561 9C11.8484 9 11.8406 9 11.8329 9C11.8252 9 11.8174 9 11.8097 9C11.802 9 11.7943 9 11.7866 9C11.7788 9 11.7711 9 11.7634 9C11.7557 9 11.748 9 11.7403 9C11.7326 9 11.7249 9 11.7172 9C11.7095 9 11.7018 9 11.6941 9C11.6864 9 11.6787 9 11.671 9C11.6633 9 11.6557 9 11.648 9C11.6403 9 11.6326 9 11.6249 9C11.6173 9 11.6096 9 11.6019 9C11.5943 9 11.5866 9 11.5789 9C11.5713 9 11.5636 9 11.556 9C11.5483 9 11.5407 9 11.533 9C11.5254 9 11.5177 9 11.5101 9C11.5025 9 11.4948 9 11.4872 9C11.4796 9 11.4719 9 11.4643 9C11.4567 9 11.4491 9 11.4415 9C11.4339 9 11.4262 9 11.4186 9C11.411 9 11.4034 9 11.3958 9C11.3882 9 11.3806 9 11.373 9C11.3654 9 11.3579 9 11.3503 9C11.3427 9 11.3351 9 11.3275 9C11.32 9 11.3124 9 11.3048 9C11.2973 9 11.2897 9 11.2821 9C11.2746 9 11.267 9 11.2595 9C11.2519 9 11.2444 9 11.2368 9C11.2293 9 11.2218 9 11.2142 9C11.2067 9 11.1992 9 11.1916 9C11.1841 9 11.1766 9 11.1691 9C11.1616 9 11.1541 9 11.1466 9C11.1391 9 11.1316 9 11.1241 9C11.1166 9 11.1091 9 11.1016 9C11.0941 9 11.0866 9 11.0791 9C11.0717 9 11.0642 9 11.0567 9C11.0493 9 11.0418 9 11.0343 9C11.0269 9 11.0194 9 11.012 9C11.0045 9 10.9971 9 10.9896 9C10.9822 9 10.9748 9 10.9673 9C10.9599 9 10.9525 9 10.9451 9C10.9376 9 10.9302 9 10.9228 9C10.9154 9 10.908 9 10.9006 9C10.8932 9 10.8858 9 10.8784 9C10.871 9 10.8637 9 10.8563 9C10.8489 9 10.8415 9 10.8342 9C10.8268 9 10.8194 9 10.8121 9C10.8047 9 10.7974 9 10.79 9C10.7827 9 10.7754 9 10.768 9C10.7607 9 10.7534 9 10.746 9C10.7387 9 10.7314 9 10.7241 9C10.7168 9 10.7095 9 10.7022 9C10.6949 9 10.6876 9 10.6803 9C10.673 9 10.6657 9 10.6584 9C10.6512 9 10.6439 9 10.6366 9C10.6294 9 10.6221 9 10.6148 9C10.6076 9 10.6003 9 10.5931 9C10.5859 9 10.5786 9 10.5714 9C10.5642 9 10.5569 9 10.5497 9C10.5425 9 10.5353 9 10.5281 9C10.5209 9 10.5137 9 10.5065 9C10.4993 9 10.4921 9 10.4849 9C10.4777 9 10.4706 9 10.4634 9C10.4562 9 10.4491 9 10.4419 9C10.4347 9 10.4276 9 10.4205 9C10.4133 9 10.4062 9 10.399 9C10.3919 9 10.3848 9 10.3777 9C10.3706 9 10.3634 9 10.3563 9C10.3492 9 10.3421 9 10.3351 9C10.328 9 10.3209 9 10.3138 9C10.3067 9 10.2996 9 10.2926 9C10.2855 9 10.2785 9 10.2714 9C10.2644 9 10.2573 9 10.2503 9C10.2432 9 10.2362 9 10.2292 9C10.2222 9 10.2151 9 10.2081 9C10.2011 9 10.1941 9 10.1871 9C10.1801 9 10.1731 9 10.1662 9C10.1592 9 10.1522 9 10.1452 9C10.1383 9 10.1313 9 10.1244 9C10.1174 9 10.1105 9 10.1035 9C10.0966 9 10.0897 9 10.0827 9C10.0758 9 10.0689 9 10.062 9C10.0551 9 10.0482 9 10.0413 9C10.0344 9 10.0275 9 10.0206 9C10.0137 9 10.0069 9 10 9V11ZM9.3299 0.257732C7.82701 1.6145 6.72928 3.01223 6.01559 4.61804C5.3019 6.22385 5 7.97528 5 10H7C7 8.1785 7.27064 6.71861 7.84321 5.43032C8.41579 4.14202 9.31806 2.96286 10.6701 1.74227L9.3299 0.257732ZM5 10C5 12.0247 5.3019 13.7761 6.01559 15.382C6.72928 16.9878 7.82701 18.3855 9.3299 19.7423L10.6701 18.2577C9.31806 17.0371 8.41579 15.858 7.84321 14.5697C7.27064 13.2814 7 11.8215 7 10H5ZM9.3299 1.74227C10.6819 2.96286 11.5842 4.14202 12.1568 5.43032C12.7294 6.71861 13 8.1785 13 10H15C15 7.97528 14.6981 6.22385 13.9844 4.61804C13.2707 3.01223 12.173 1.6145 10.6701 0.257732L9.3299 1.74227ZM13 10C13 11.8215 12.7294 13.2814 12.1568 14.5697C11.5842 15.858 10.6819 17.0371 9.3299 18.2577L10.6701 19.7423C12.173 18.3855 13.2707 16.9878 13.9844 15.382C14.6981 13.7761 15 12.0247 15 10H13Z" fill="#92959D"/>
</svg>
