<?xml version="1.0" standalone="no"?>
<!DOCTYPE svg PUBLIC "-//W3C//DTD SVG 20010904//EN"
 "http://www.w3.org/TR/2001/REC-SVG-20010904/DTD/svg10.dtd">
<svg version="1.0" xmlns="http://www.w3.org/2000/svg"
 width="700.000000pt" height="700.000000pt" viewBox="0 0 700.000000 700.000000"
 preserveAspectRatio="xMidYMid meet">
<metadata>
Created by potrace 1.14, written by Peter Selinger 2001-2017
</metadata>
<g transform="translate(0.000000,700.000000) scale(0.100000,-0.100000)"
fill="#000000" stroke="none">
<path d="M490 5640 c0 -3 22 -28 48 -57 141 -152 420 -451 437 -469 11 -11 76
-81 145 -155 69 -74 159 -170 200 -214 41 -43 80 -84 85 -90 15 -18 227 -244
255 -274 14 -14 81 -89 150 -166 69 -77 127 -142 130 -145 6 -6 130 -146 176
-199 16 -18 43 -48 59 -65 17 -18 77 -86 135 -151 58 -66 114 -129 125 -141
31 -32 81 -89 154 -172 36 -43 73 -84 82 -92 9 -8 49 -53 90 -100 41 -47 76
-87 79 -90 3 -3 80 -88 170 -190 91 -102 170 -190 175 -196 6 -6 37 -41 70
-79 33 -37 65 -73 71 -79 5 -6 70 -78 143 -161 74 -82 166 -186 205 -229 82
-91 68 -75 171 -191 44 -50 82 -92 85 -95 3 -3 37 -41 75 -85 74 -84 123 -139
197 -219 l45 -48 1059 0 c582 0 1094 1 1136 1 l76 1 0 2068 c0 1138 -3 2072
-6 2078 -10 13 -1172 12 -1173 -1 0 -5 -1 -644 -1 -1418 0 -774 -4 -1406 -7
-1405 -4 2 -35 35 -70 73 -35 39 -80 88 -101 110 -20 22 -83 92 -140 155 -57
63 -106 117 -109 120 -3 3 -44 48 -91 100 -47 52 -92 101 -100 110 -8 9 -53
58 -100 110 -47 52 -112 124 -145 160 -96 105 -228 251 -271 299 -21 25 -50
57 -64 71 -14 14 -59 64 -100 110 -41 45 -84 93 -95 104 -11 12 -60 66 -110
121 -138 153 -158 175 -180 199 -11 12 -81 89 -155 171 -74 82 -144 159 -155
171 -11 11 -56 61 -100 110 -44 49 -107 118 -140 154 -169 184 -241 264 -274
302 -20 23 -46 51 -59 62 -23 20 -31 21 -1153 21 -621 0 -1129 -2 -1129 -5z"/>
<path d="M1094 2730 l0 -630 589 0 590 0 -19 22 c-10 12 -32 36 -49 53 -16 18
-61 65 -99 106 -37 41 -112 121 -166 179 -54 58 -111 119 -126 135 -25 28
-176 190 -325 349 -36 39 -77 83 -90 97 -13 15 -69 75 -124 134 -55 59 -116
124 -136 146 -19 21 -37 39 -40 39 -3 0 -5 -283 -5 -630z"/>
</g>
</svg>
