<svg width="146" height="30" viewBox="0 0 146 30" fill="none" xmlns="http://www.w3.org/2000/svg">
<g clip-path="url(#clip0_343_13788)">
<path d="M59.66 30H4.0264C2.0776 30 0.5 28.4368 0.5 26.5057V3.49425C0.5 1.56322 2.0776 0 4.0264 0H59.66V30Z" fill="#333333"/>
<path d="M141.974 30H59.6602V0H141.974C143.923 0 145.5 1.56322 145.5 3.49425V26.5172C145.5 28.4368 143.923 30 141.974 30Z" fill="url(#paint0_linear_343_13788)"/>
<path d="M18.5727 18.1954C18.5727 19.3333 18.4103 20.2414 18.0971 20.9195C17.7839 21.5977 17.3663 22.115 16.8675 22.4598C16.3687 22.8161 15.8119 23.046 15.1971 23.1609C14.5823 23.2759 13.9791 23.3333 13.3875 23.3333H7.50635V6.79311H13.9791C14.8143 6.79311 15.4871 6.93104 16.0207 7.20691C16.5543 7.48277 16.9719 7.83909 17.2851 8.28737C17.5983 8.73564 17.8071 9.22989 17.9231 9.77012C18.0391 10.3104 18.0855 10.8506 18.0739 11.3678C18.0507 12.8736 17.6679 13.8966 16.9255 14.4368C17.4127 14.6667 17.8071 15.0805 18.1203 15.6782C18.4219 16.2874 18.5727 17.1264 18.5727 18.1954ZM14.9535 11.4253C14.9535 10.9081 14.8955 10.5173 14.7679 10.2644C14.6403 10.0115 14.3967 9.88507 14.0255 9.88507H10.6731V13.1839H13.7239C14.1995 13.1839 14.5127 13.023 14.6867 12.7127C14.8607 12.3908 14.9535 11.954 14.9535 11.4253ZM15.3943 18.2184C15.3943 17.7586 15.3595 17.3908 15.2783 17.1264C15.2087 16.8621 15.1043 16.6437 14.9883 16.4943C14.8723 16.3448 14.7447 16.2414 14.5939 16.1954C14.4547 16.1494 14.3155 16.1264 14.1763 16.1264H10.6731V20.092H13.9095C14.4663 20.092 14.8607 19.9425 15.0695 19.6552C15.2899 19.3563 15.3943 18.8851 15.3943 18.2184ZM31.2632 23.3333H20.6607V6.79311H31.0775V10H23.8159V13.046H30.4975V16.2529H23.8159V20.1035H31.2632V23.3333ZM43.5359 18.4483C43.5359 21.931 41.6451 23.6782 37.8636 23.6782C36.0308 23.6782 34.6271 23.1609 33.6643 22.1379C32.7015 21.1035 32.2259 19.5173 32.2259 17.3678H35.2999C35.3231 17.8391 35.3811 18.2874 35.4623 18.6782C35.5435 19.0805 35.6944 19.4138 35.9032 19.7012C36.1119 19.9885 36.3787 20.2069 36.7152 20.3678C37.0515 20.5287 37.4807 20.6092 38.0027 20.6092C38.8611 20.6092 39.4759 20.4483 39.8587 20.1379C40.2415 19.8276 40.4387 19.2069 40.4387 18.3104C40.4387 17.8391 40.3575 17.4943 40.2067 17.2874C40.0559 17.0805 39.8124 16.9195 39.4876 16.7931C39.1164 16.6552 38.6639 16.5517 38.1419 16.4713C37.6199 16.3908 37.0168 16.2644 36.344 16.0805C35.8219 15.931 35.3347 15.7586 34.8939 15.5632C34.4531 15.3678 34.0587 15.1035 33.7223 14.7471C33.3859 14.3908 33.1308 13.931 32.9452 13.3678C32.7596 12.8046 32.6667 12.0575 32.6667 11.1379C32.6667 10.4598 32.7479 9.87357 32.9219 9.37932C33.0843 8.88507 33.3163 8.45978 33.5947 8.11495C33.8731 7.77012 34.198 7.49426 34.5576 7.27587C34.9288 7.05748 35.2999 6.89656 35.6827 6.78162C36.0655 6.66668 36.4484 6.58622 36.8312 6.55173C37.214 6.51725 37.5735 6.49426 37.8867 6.49426C38.9771 6.49426 39.8703 6.66668 40.5432 7.00001C41.2276 7.33334 41.7495 7.78162 42.1323 8.31035C42.5151 8.85058 42.7704 9.45978 42.8979 10.1264C43.0256 10.8046 43.0951 11.4713 43.0951 12.1264H40.0792C40.0327 11.8506 39.998 11.5402 39.9632 11.2069C39.9399 10.8736 39.8587 10.5747 39.7427 10.3333C39.6383 10.115 39.4643 9.91955 39.1975 9.74714C38.9307 9.57472 38.5131 9.48277 37.9447 9.48277C37.5039 9.48277 37.1327 9.51725 36.8427 9.59771C36.5527 9.67817 36.3323 9.79311 36.1699 9.94254C36.0075 10.092 35.8916 10.2989 35.8335 10.5402C35.7756 10.7816 35.7407 11.0805 35.7407 11.4138C35.7407 11.8161 35.8335 12.1035 36.0075 12.2759C36.1816 12.4483 36.518 12.5977 37.0052 12.7241C37.5156 12.8621 38.0259 12.977 38.5479 13.069C39.07 13.1609 39.5687 13.2759 40.056 13.4023C40.5431 13.5287 40.9956 13.7012 41.4132 13.9195C41.8307 14.1379 42.202 14.4253 42.5152 14.8046C42.8284 15.1839 43.0835 15.6667 43.2575 16.2529C43.4548 16.8391 43.5359 17.5747 43.5359 18.4483ZM55.0547 9.98852H51.2383V23.3333H48.0716V9.98852H44.2551V6.79311H55.0432L55.0547 9.98852Z" fill="white"/>
<path d="M75.5174 17.2529C75.4478 18.115 75.297 18.931 75.065 19.7127C74.833 20.4943 74.4966 21.1724 74.0558 21.7471C73.615 22.3333 73.035 22.7931 72.3274 23.1379C71.6198 23.4828 70.7614 23.6552 69.7522 23.6552C68.5922 23.6552 67.6062 23.4598 66.7942 23.069C65.9822 22.6782 65.3326 22.1035 64.8222 21.3678C64.3234 20.6207 63.9522 19.7012 63.7318 18.6092C63.4998 17.5172 63.3838 16.2759 63.3838 14.8736C63.3838 13.5862 63.5114 12.4138 63.755 11.3793C63.9986 10.3448 64.3814 9.45978 64.9034 8.72415C65.4254 8.00001 66.0866 7.43679 66.8754 7.04598C67.6758 6.65518 68.627 6.45978 69.729 6.45978C70.8426 6.45978 71.7474 6.63219 72.455 6.97702C73.1626 7.32185 73.7194 7.77012 74.1486 8.32185C74.5662 8.87357 74.8678 9.50576 75.0534 10.2069C75.239 10.9081 75.3666 11.6207 75.4478 12.3218H72.455C72.3854 11.954 72.3042 11.5977 72.2114 11.2644C72.1302 10.931 71.991 10.6322 71.817 10.3908C71.643 10.1494 71.3994 9.95403 71.0978 9.80461C70.7962 9.65518 70.3902 9.58621 69.8798 9.58621C69.265 9.58621 68.743 9.68966 68.3254 9.88507C67.9078 10.0805 67.5598 10.4023 67.3046 10.8506C67.0494 11.2989 66.8638 11.8851 66.7478 12.6092C66.6318 13.3333 66.5854 14.2299 66.5854 15.2989C66.5854 16.3793 66.6666 17.2414 66.8174 17.9195C66.9682 18.5862 67.1886 19.115 67.467 19.4828C67.7454 19.8621 68.0818 20.115 68.4878 20.2529C68.8938 20.3908 69.3346 20.4598 69.8334 20.4598C70.3438 20.4598 70.7382 20.3793 71.0398 20.2299C71.3414 20.0805 71.5734 19.8621 71.7474 19.5747C71.9214 19.2874 72.0606 18.954 72.1534 18.5632C72.2578 18.1724 72.3506 17.7356 72.455 17.2414L75.5174 17.2529ZM88.2194 23.3333H85.0642V16.1954H80.3082V23.3333H77.153V6.79311H80.3082V12.9655H85.0642V6.79311H88.2194V23.3333ZM101.525 23.3333H98.2186L97.3486 19.9195H93.1494L92.291 23.3333H89.101L93.6714 6.79311H96.8034L101.525 23.3333ZM96.5598 16.8391L95.2606 11.5172L93.9266 16.8391H96.5598ZM110.793 23.3333L105.967 13.2644V23.3333H102.812V6.79311H105.909L110.77 16.7931V6.79311H113.902V23.3333H110.793ZM128.135 23.3333H125.571V21.6552C125.386 22.0575 125.154 22.3793 124.875 22.6322C124.597 22.8851 124.295 23.0805 123.971 23.2299C123.646 23.3793 123.298 23.4713 122.95 23.5287C122.602 23.5862 122.254 23.6092 121.917 23.6092C120.757 23.6092 119.783 23.3908 119.006 22.9425C118.229 22.4943 117.602 21.8851 117.127 21.1035C116.651 20.3218 116.315 19.3908 116.117 18.3218C115.92 17.2529 115.816 16.1035 115.816 14.8736C115.816 9.26438 117.939 6.45978 122.196 6.45978C123.251 6.45978 124.133 6.63219 124.864 6.96552C125.595 7.29886 126.186 7.75863 126.639 8.31035C127.091 8.87357 127.416 9.51725 127.613 10.2299C127.81 10.954 127.915 11.7012 127.915 12.4598H124.69C124.69 12.1264 124.667 11.7816 124.62 11.4253C124.574 11.069 124.469 10.7586 124.307 10.4828C124.145 10.2069 123.889 9.97702 123.553 9.80461C123.217 9.63219 122.764 9.54024 122.184 9.54024C121.604 9.54024 121.105 9.63219 120.711 9.82759C120.305 10.023 119.98 10.3218 119.725 10.7356C119.47 11.1494 119.284 11.6897 119.168 12.3448C119.052 13 118.994 13.7931 118.994 14.7127C118.994 15.7241 119.041 16.5977 119.145 17.3218C119.249 18.046 119.423 18.6322 119.679 19.069C119.934 19.5172 120.27 19.8391 120.688 20.046C121.105 20.2529 121.639 20.3563 122.289 20.3563C122.66 20.3563 123.008 20.2989 123.344 20.1839C123.681 20.069 123.971 19.8851 124.214 19.6437C124.458 19.4023 124.655 19.0805 124.794 18.7012C124.933 18.3218 124.991 17.8621 124.98 17.3218H122.01V14.2759H128.158V23.3333H128.135ZM140.698 23.3333H130.119V6.79311H140.512V10H133.274V13.046H139.932V16.2529H133.274V20.1035H140.698V23.3333Z" fill="#363636"/>
</g>
<defs>
<linearGradient id="paint0_linear_343_13788" x1="102.58" y1="30" x2="102.58" y2="0" gradientUnits="userSpaceOnUse">
<stop stop-color="#BCBCBC"/>
<stop offset="1" stop-color="#F3F3F3"/>
</linearGradient>
<clipPath id="clip0_343_13788">
<rect width="145" height="30" fill="white" transform="translate(0.5)"/>
</clipPath>
</defs>
</svg>
